<svg xmlns="http://www.w3.org/2000/svg" width="36" height="36" viewBox="0 0 36 36"><g transform="translate(-606 -238)"><rect width="36" height="36" transform="translate(606 238)" fill="none"/><g transform="translate(609.601 242.6)"><g transform="translate(0 0)"><path d="M325.726,452.851l-7.054,3.523a3.909,3.909,0,0,1-5.243-1.748h0a3.9,3.9,0,0,1-.414-1.748v-7.051a3.909,3.909,0,0,1,5.656-3.5l7.051,3.524a3.915,3.915,0,0,1,.005,7Z" transform="translate(-313.014 -441.918)" fill="#ff9cca"/><g transform="translate(4.522 9.131)"><path d="M322.9,463.118a.2.2,0,0,1-.157-.085l-2.52-3.78-4.477.855a.208.208,0,0,1-.18-.072.177.177,0,0,1-.018-.2l5.342-10.49a.174.174,0,0,1,.077-.079l4.214-2.254a.164.164,0,0,1,.1-.022h.022a.18.18,0,0,1,.169.133l1.345,4.588a.2.2,0,0,1,0,.112l-3.74,11.16a.18.18,0,0,1-.153.126Z" transform="translate(-315.526 -446.99)" fill="#ff9cca"/></g><g transform="translate(13.92 0.002)"><g transform="translate(0.942)"><path d="M323.433,452.85l7.052,3.524a3.907,3.907,0,0,0,5.656-3.5v-7.051a3.906,3.906,0,0,0-3.9-3.91h0a3.936,3.936,0,0,0-1.75.412l-7.052,3.524a3.91,3.91,0,0,0,0,6.995Z" transform="translate(-321.27 -441.919)" fill="#ff9cca"/></g><g transform="translate(0 9.129)"><path d="M324.674,463.118a.18.18,0,0,0,.157-.085l2.52-3.78,4.475.855a.206.206,0,0,0,.18-.072.177.177,0,0,0,.018-.2l-5.342-10.49a.179.179,0,0,0-.076-.079l-4.216-2.254a.164.164,0,0,0-.1-.022h-.022a.189.189,0,0,0-.169.133l-1.345,4.588a.233.233,0,0,0,0,.112l3.74,11.16a.194.194,0,0,0,.153.126Z" transform="translate(-320.747 -446.99)" fill="#ff9cca"/></g></g></g><g transform="translate(8.591 0.592)"><g transform="translate(1.8 1.8)"><circle cx="4.477" cy="4.477" r="4.477" fill="#ff9cca"/></g><path d="M324.064,454.8a6.277,6.277,0,1,1,6.277-6.277A6.284,6.284,0,0,1,324.064,454.8Zm0-10.753a4.477,4.477,0,1,0,4.477,4.477A4.482,4.482,0,0,0,324.064,444.047Z" transform="translate(-317.787 -442.247)" fill="#fff"/></g></g></g></svg>