<svg xmlns="http://www.w3.org/2000/svg" width="40" height="40" viewBox="0 0 40 40"><g transform="translate(-7882 -8052)"><g transform="translate(0.5 0.383)"><path d="M7907.235,8059.759l-5.735,4.122-5.735-4.122c-1.1-.634-2.486.986-2.486,2.255v8.336a1.657,1.657,0,0,0,2.486,1.427l5.735-3.294,5.735,3.294a1.656,1.656,0,0,0,2.485-1.427v-8.336C7909.72,8060.745,7908.34,8059.125,7907.235,8059.759Z" transform="translate(0)" fill="#fff" stroke="#222" stroke-linecap="round" stroke-linejoin="round" stroke-width="1.5"/><rect width="21.268" height="18.01" rx="4.037" transform="translate(7890.866 8065.606)" fill="#fff" stroke="#222" stroke-linecap="round" stroke-linejoin="round" stroke-width="1.5"/><rect width="26" height="6.134" rx="1.988" transform="translate(7888.5 8063.461)" fill="#fff" stroke="#222" stroke-linecap="round" stroke-linejoin="round" stroke-width="1.5"/><rect width="4.454" height="21.5" transform="translate(7899.273 8062.117)" fill="#fff" stroke="#222" stroke-linecap="round" stroke-linejoin="round" stroke-width="1.5"/></g><rect width="40" height="40" transform="translate(7882 8052)" fill="none"/></g></svg>