<svg xmlns="http://www.w3.org/2000/svg" width="36" height="36" viewBox="0 0 36 36"><rect width="36" height="36" fill="none"/><g transform="translate(7.2 2.6)"><path d="M212.924,419.219a22.855,22.855,0,0,0-1.373-8.962c-3.1-7.583-4.932-6.748-4.932-6.748s-1.825-.835-4.932,6.748a22.921,22.921,0,0,0-1.373,8.962c-1.292,1.786-5.04,7.2-3.908,8.564.67.8,2.929.686,5.04.36.139.6.232.938.232.938a3.016,3.016,0,0,0,1.325.34v1.219a.9.9,0,0,0,.9.9h5.418a.9.9,0,0,0,.9-.9v-1.219a2.981,2.981,0,0,0,1.327-.34s.094-.338.232-.938c2.119.322,4.381.437,5.04-.36C217.962,426.43,214.216,421,212.924,419.219Z" transform="translate(-196.195 -403.482)" fill="#67a0f5"/><g transform="translate(3.242 3.564)"><g transform="translate(4.686 7.144)"><circle cx="2.495" cy="2.495" r="2.495" fill="#fff"/></g><path d="M204.841,408.473A18.2,18.2,0,0,1,198,407.131l.677-1.669a16.313,16.313,0,0,0,12.335,0l.677,1.669A18.2,18.2,0,0,1,204.841,408.473Z" transform="translate(-197.996 -405.462)" fill="#fff"/></g></g></svg>