<svg xmlns="http://www.w3.org/2000/svg" width="24" height="24" viewBox="0 0 24 24"><g transform="translate(-292 -117.205)"><g transform="translate(292 117)"><rect width="24" height="24" transform="translate(0 0.205)" fill="none"/></g><g transform="translate(295.025 120.025)"><path d="M536.271,704.641a1.026,1.026,0,0,0-1.023-.934H523.936a1.026,1.026,0,0,0-1.022.934l-.895,9.974a1.026,1.026,0,0,0,1.022,1.117h13.1a1.026,1.026,0,0,0,1.022-1.117Z" transform="translate(-522.015 -700.5)" fill="#67a0f5"/><rect width="7.231" height="9.22" rx="3.616" transform="translate(3.961)" fill="none" stroke="#67a0f5" stroke-miterlimit="10" stroke-width="1.7"/><g transform="translate(6.737 7.816)"><circle cx="5.813" cy="5.813" r="5.813" fill="#67a0f5" stroke="#fff" stroke-miterlimit="10" stroke-width="1.7"/><g transform="translate(3.265 3.265)"><line x2="5.097" transform="translate(0 2.548)" fill="#37d243" stroke="#fff" stroke-linecap="round" stroke-linejoin="round" stroke-width="1.7"/><line y1="5.097" transform="translate(2.548)" fill="#37d243" stroke="#fff" stroke-linecap="round" stroke-linejoin="round" stroke-width="1.7"/></g></g></g></g></svg>