<svg xmlns="http://www.w3.org/2000/svg" width="40" height="40" viewBox="0 0 40 40"><g transform="translate(-299 -190)"><g transform="translate(63 -253)"><rect width="40" height="40" transform="translate(236 443)" fill="none"/><g transform="translate(246 451)"><path d="M7.7,16.876,2.521,14.627A5.111,5.111,0,0,1,.027,9.583L1.249,1.1A1.148,1.148,0,0,1,2.327,0H17.673a1.148,1.148,0,0,1,1.078,1.1l1.223,8.482a5.111,5.111,0,0,1-2.494,5.043l-5.51,2.249v3.553l5.124,3.343A1.272,1.272,0,0,1,16.442,26H3.558a1.272,1.272,0,0,1-.651-2.229l4.8-3.343Z" transform="translate(0)" fill="none" stroke="#222" stroke-linejoin="round" stroke-miterlimit="10" stroke-width="1.5"/><path d="M.69.9h18" transform="translate(0.31 3.258)" fill="none" stroke="#222" stroke-linecap="square" stroke-miterlimit="10" stroke-width="1.5"/></g></g><g transform="translate(-30.711 -182)"><g transform="translate(348.711 398)" fill="#fff" stroke="#222" stroke-linecap="round" stroke-linejoin="round" stroke-width="1.5"><rect width="16" height="11" rx="3" stroke="none"/><rect x="0.75" y="0.75" width="14.5" height="9.5" rx="2.25" fill="none"/></g><g transform="translate(352.454 401)"><g transform="translate(0 0)"><g transform="translate(0)"><rect width="0.79" height="5" transform="translate(2.324)" fill="#222"/><rect width="1.46" height="5" fill="#222"/><rect width="1.635" height="5" transform="translate(3.922)" fill="#222"/><rect width="0.735" height="5" transform="translate(6.439)" fill="#222"/><rect width="1.46" height="5" transform="translate(7.75)" fill="#222"/></g></g></g></g></g></svg>