<svg xmlns="http://www.w3.org/2000/svg" width="32.908" height="33" viewBox="0 0 32.908 33"><g transform="translate(-315.092 -197)"><rect width="32" height="32" transform="translate(316 198)" fill="none"/><g transform="translate(316.092 198)"><circle cx="12.996" cy="12.996" r="12.996" transform="translate(5.478 3.739)" fill="#ac7deb"/><g fill="#ac7deb" stroke="#222" stroke-width="1"><circle cx="13.93" cy="13.93" r="13.93" stroke="none"/><circle cx="13.93" cy="13.93" r="14.43" fill="none"/></g><g transform="translate(5.478 8.195)"><g transform="translate(0 0)"><path d="M14.834,3.221l.417-1.786A1.17,1.17,0,1,0,12.964.946L12.52,3.221H10.265L9.65.922a1.243,1.243,0,0,0-2.4,0l-.609,2.3H4.387L3.939.942a1.168,1.168,0,1,0-2.283.491l.418,1.788H1.055a1.055,1.055,0,0,0,0,2.11H2.566l1.251,5.359a1.411,1.411,0,0,0,2.734.057L8.058,5.332h.783l1.518,5.418a1.412,1.412,0,0,0,2.735-.06l1.249-5.358h1.506a1.055,1.055,0,0,0,0-2.11ZM5.376,7.985H5.327L4.8,5.332H6.079ZM11.588,8h-.045L10.83,5.332h1.278Z" transform="translate(0)" fill="#fff"/></g></g></g></g></svg>