<svg xmlns="http://www.w3.org/2000/svg" width="36" height="36" viewBox="0 0 36 36"><g transform="translate(-3543.391 423.217)"><path d="M3567.833-420.477a.756.756,0,0,0-.66-.128l-13.46,3.7-.056.022-.048.018a.607.607,0,0,0-.1.056h-.016a1.161,1.161,0,0,0-.1.086l-.028.032a.774.774,0,0,0-.058.072l-.028.042a.65.65,0,0,0-.041.074l-.02.048c-.012.03-.019.056-.028.086l-.013.046a.882.882,0,0,0-.014.138v14.42a3.751,3.751,0,0,0-2.25-.748,3.772,3.772,0,0,0-3.764,3.764,3.77,3.77,0,0,0,3.764,3.766,3.769,3.769,0,0,0,3.766-3.766v-13.112l11.946-3.286v9.762a3.753,3.753,0,0,0-2.25-.75,3.768,3.768,0,0,0-3.765,3.764,3.768,3.768,0,0,0,3.765,3.764,3.767,3.767,0,0,0,3.763-3.764v-17.516A.751.751,0,0,0,3567.833-420.477Z" transform="translate(3.753 1.115)" fill="#222"/><rect width="36" height="36" transform="translate(3543.391 -423.217)" fill="none"/></g></svg>