<svg xmlns="http://www.w3.org/2000/svg" width="40" height="40" viewBox="0 0 40 40"><g transform="translate(-168 -443)"><g transform="translate(-7650 -7593)"><path d="M7830.052,8045h16.067a3.719,3.719,0,0,1,3.533,3.281l2.289,14.009a3.891,3.891,0,0,1-3.533,4.71h-16.067a3.72,3.72,0,0,1-3.533-3.281l-2.289-14.01A3.89,3.89,0,0,1,7830.052,8045Z" transform="translate(0 0)" fill="#fff" stroke="#222" stroke-linecap="round" stroke-linejoin="round" stroke-width="1.5"/><path d="M7845.948,8045h-16.067a3.719,3.719,0,0,0-3.533,3.281l-2.289,14.009a3.891,3.891,0,0,0,3.532,4.71h16.067a3.72,3.72,0,0,0,3.533-3.281l2.289-14.01A3.89,3.89,0,0,0,7845.948,8045Z" transform="translate(0 0)" fill="#fff" stroke="#222" stroke-linecap="round" stroke-linejoin="round" stroke-width="1.5"/><path d="M7832.658,8055.187l4.183,4.783,6.042-8.609" transform="translate(-0.876 0)" fill="none" stroke="#222" stroke-linecap="round" stroke-linejoin="round" stroke-width="1.5"/></g><g transform="translate(-7651 -7593)"><rect width="40" height="40" transform="translate(7819 8036)" fill="none"/></g></g></svg>