<svg xmlns="http://www.w3.org/2000/svg" width="36" height="36" viewBox="0 0 36 36"><g transform="translate(-3515.39 423.218)"><rect width="36" height="36" transform="translate(3515.39 -423.218)" fill="none"/><g transform="translate(3523.445 -421.276)"><path d="M3519.416-409.223a16.234,16.234,0,0,1,.514,4.742c-.032,3.074-.863,9.79,9,10.576s11.529-8.018,9.763-11.316a7.638,7.638,0,0,1-1.637,2.17,12.671,12.671,0,0,0-2.106-8.53,15.3,15.3,0,0,1-3.382-9.424s-8.189,5.042-8.744,13.888A6.755,6.755,0,0,0,3519.416-409.223Z" transform="translate(-3519.416 421.005)" fill="#ff3131"/><path d="M3523.583-406.438s.016-3.414,3.958-7.388a9.526,9.526,0,0,0,2.166,4.956c2.012,2.448,1.935,6.75-2.57,6.78s-5.58-2.664-4.614-5.626A2.511,2.511,0,0,0,3523.583-406.438Z" transform="translate(-3516.635 427.401)" fill="#fff"/></g></g></svg>