<svg xmlns="http://www.w3.org/2000/svg" width="36" height="36" viewBox="0 0 36 36"><g transform="translate(0 0)"><rect width="36" height="36" transform="translate(0 0)" fill="none"/><g transform="translate(8.377 3.6)"><path d="M3538.781-378.492a.394.394,0,0,0-.017-.138c-.012-.086-.021-.174-.04-.258a9.62,9.62,0,0,0-4.686-7h.212a1.074,1.074,0,0,0,1.073-1.074h0v-.476a1.063,1.063,0,0,0-.976-1.054l1.911-3.078a.864.864,0,0,0-.278-1.188.862.862,0,0,0-.455-.128h-12.649a.859.859,0,0,0-.86.864.856.856,0,0,0,.13.452l1.908,3.078a1.064,1.064,0,0,0-.977,1.054v.476a1.075,1.075,0,0,0,1.074,1.074h.211a9.622,9.622,0,0,0-4.685,7c-.021.084-.026.172-.041.258a.491.491,0,0,1-.013.138,3.565,3.565,0,0,0-.047.458v7.91a3.92,3.92,0,0,0,3.916,3.918h11.412a3.918,3.918,0,0,0,3.919-3.918v-7.91A4.176,4.176,0,0,0,3538.781-378.492Z" transform="translate(-3519.578 392.886)" fill="#37d243"/><rect width="14.543" height="1.8" transform="translate(2.431 6.997)" fill="#fff"/><rect width="14.543" height="1.8" transform="translate(2.04 2.717)" fill="#fff"/><g transform="translate(6.684 11.089)"><g transform="translate(0 1.404)"><path d="M3523.272-378.3a5.8,5.8,0,0,0,2.212.44,2.521,2.521,0,0,0,1.563-.468,1.485,1.485,0,0,0,.613-1.254,1.412,1.412,0,0,0-.342-.886,2.933,2.933,0,0,0-.834-.712c-.362-.2-.736-.388-1.114-.57s-.746-.37-1.1-.57a2.373,2.373,0,0,1-.929-.866,2.147,2.147,0,0,1-.3-1.082,2.523,2.523,0,0,1,.246-1.14,2.4,2.4,0,0,1,.666-.824,2.813,2.813,0,0,1,.983-.492,4.364,4.364,0,0,1,1.195-.158,8.47,8.47,0,0,1,1.158.07,7.188,7.188,0,0,1,.981.212.5.5,0,0,1,.185.1.2.2,0,0,1,.062.194l-.051.526a.2.2,0,0,1-.106.176.245.245,0,0,1-.177,0,4.4,4.4,0,0,0-.875-.22,7.934,7.934,0,0,0-1.054-.062q-2.034,0-2.035,1.614a1.012,1.012,0,0,0,.271.668,2.925,2.925,0,0,0,.92.632c.375.188.747.366,1.106.534s.756.372,1.175.606a2.383,2.383,0,0,1,.9.912,2.6,2.6,0,0,1,.36,1.334,2.483,2.483,0,0,1-.28,1.212,2.44,2.44,0,0,1-.756.842,3.412,3.412,0,0,1-1.088.5,4.835,4.835,0,0,1-1.261.168c-.258,0-.49-.006-.694-.018s-.4-.03-.578-.054-.369-.052-.554-.086-.386-.082-.6-.142a.3.3,0,0,1-.229-.316l.072-.648C3523.015-378.311,3523.108-378.369,3523.272-378.3Z" transform="translate(-3522.92 386.881)" fill="#fff"/></g><rect width="1" height="1.6" rx="0.1" transform="translate(2.441)" fill="#fff"/><rect width="1" height="1.6" rx="0.1" transform="translate(2.52 11.265)" fill="#fff"/></g></g></g></svg>