<svg xmlns="http://www.w3.org/2000/svg" width="40" height="40" viewBox="0 0 40 40"><g transform="translate(-7981.674 -7973.266)"><g transform="translate(0 1.5)"><g transform="translate(7986.674 7978.767)"><path d="M8014.081,7985.156l-4.263-5.171a2.9,2.9,0,0,0-2.593-1.207l-16.43,1.476a3.166,3.166,0,0,0-2.737,3.485l.747,9.655a3.075,3.075,0,0,0,3.236,2.95l16.43-1.476a2.99,2.99,0,0,0,2.371-1.653l3.409-5.861A1.706,1.706,0,0,0,8014.081,7985.156Z" transform="translate(-7986.675 -7978.767)" fill="#fff" stroke="#222" stroke-linecap="round" stroke-linejoin="round" stroke-width="1.5"/><path d="M8013.486,7984.5l-6.523-2.558a3.441,3.441,0,0,0-3.1.134l-15.576,8.8a3.043,3.043,0,0,0-1.148,4.29l5.052,8.074a3.393,3.393,0,0,0,4.515,1.09l15.576-8.8a3.105,3.105,0,0,0,1.605-2.524l.75-6.668A1.561,1.561,0,0,0,8013.486,7984.5Z" transform="translate(-7986.674 -7978.767)" fill="#fff" stroke="#222" stroke-linecap="round" stroke-linejoin="round" stroke-width="1.5"/><path d="M8011.116,7988.825" transform="translate(-7988.674 -7979.807)" fill="#fff" stroke="#222" stroke-linecap="round" stroke-linejoin="round" stroke-width="1.5"/><g transform="translate(10.024 8.991) rotate(13)"><ellipse cx="1.578" cy="1.58" rx="1.578" ry="1.58" transform="translate(0 2.729)" fill="#fff" stroke="#222" stroke-linecap="round" stroke-linejoin="round" stroke-width="1.5"/><ellipse cx="1.578" cy="1.58" rx="1.578" ry="1.58" transform="translate(6.845 3.11)" fill="#fff" stroke="#222" stroke-linecap="round" stroke-linejoin="round" stroke-width="1.5"/><line x1="0.791" y2="9" transform="translate(4.604)" fill="#fff" stroke="#222" stroke-linecap="round" stroke-linejoin="round" stroke-width="1.5"/></g></g><circle cx="1" cy="1" r="1" transform="translate(8010.174 7986.267)" fill="#222"/></g><rect width="40" height="40" transform="translate(7981.674 7973.266)" fill="none"/></g></svg>