<svg xmlns="http://www.w3.org/2000/svg" width="40" height="40" viewBox="0 0 40 40"><g transform="translate(-236 -443)"><rect width="40" height="40" transform="translate(236 443)" fill="none"/><g transform="translate(246 451)"><path d="M7.7,16.876,2.521,14.627A5.111,5.111,0,0,1,.027,9.583L1.249,1.1A1.148,1.148,0,0,1,2.327,0H17.673a1.148,1.148,0,0,1,1.078,1.1l1.223,8.482a5.111,5.111,0,0,1-2.494,5.043l-5.51,2.249v3.553l5.124,3.343A1.272,1.272,0,0,1,16.442,26H3.558a1.272,1.272,0,0,1-.651-2.229l4.8-3.343Z" transform="translate(0)" fill="none" stroke="#222" stroke-linejoin="round" stroke-miterlimit="10" stroke-width="1.5"/><path d="M.69.9h18" transform="translate(0.31 3.258)" fill="none" stroke="#222" stroke-linecap="square" stroke-miterlimit="10" stroke-width="1.5"/></g></g></svg>