<svg xmlns="http://www.w3.org/2000/svg" width="36" height="36" viewBox="0 0 36 36"><g transform="translate(0 0)"><rect width="36" height="36" transform="translate(0 0)" fill="none"/><g transform="translate(5.123 3.6)"><path d="M3446.868-364.265c-7.09,0-12.838,5.1-12.838,11.39a10.534,10.534,0,0,0,2.492,6.746c.9,1.082-3.432,4.738-2.414,5.428,3.1,2.1,7.476-1.75,8.459-1.44a14.322,14.322,0,0,0,4.3.654c7.09,0,12.838-5.1,12.838-11.39S3453.958-364.265,3446.868-364.265Z" transform="translate(-3433.952 364.265)" fill="#67a0f5"/><g transform="translate(6.037 9.9)"><ellipse cx="1.35" cy="1.35" rx="1.35" ry="1.35" transform="translate(0)" fill="#fff"/><ellipse cx="1.35" cy="1.35" rx="1.35" ry="1.35" transform="translate(5.489)" fill="#fff"/><ellipse cx="1.35" cy="1.35" rx="1.35" ry="1.35" transform="translate(10.979)" fill="#fff"/></g></g></g></svg>