<svg xmlns="http://www.w3.org/2000/svg" width="120" height="24" viewBox="0 0 120 24"><g transform="translate(-124 -2401)"><g transform="translate(171.991 2401)"><rect width="24" height="24" transform="translate(0.009)" fill="none"/><path d="M303.674,413.305a.51.51,0,0,0-.413-.348l-6.793-.979-3.036-6.111a.51.51,0,0,0-.914,0l-3.037,6.107-6.793.983a.51.51,0,0,0-.282.872l4.912,4.755-1.159,6.714a.511.511,0,0,0,.739.54l6.076-3.172,6.076,3.172a.509.509,0,0,0,.537-.041.511.511,0,0,0,.2-.5l-1.159-6.714,4.912-4.755A.509.509,0,0,0,303.674,413.305Z" transform="translate(-280.976 -403.742)" fill="#37d243"/></g><g transform="translate(147.996 2401)"><rect width="24" height="24" transform="translate(0.004)" fill="none"/><path d="M303.674,413.305a.51.51,0,0,0-.413-.348l-6.793-.979-3.036-6.111a.51.51,0,0,0-.914,0l-3.037,6.107-6.793.983a.51.51,0,0,0-.282.872l4.912,4.755-1.159,6.714a.511.511,0,0,0,.739.54l6.076-3.172,6.076,3.172a.509.509,0,0,0,.537-.041.511.511,0,0,0,.2-.5l-1.159-6.714,4.912-4.755A.509.509,0,0,0,303.674,413.305Z" transform="translate(-280.976 -403.742)" fill="#37d243"/></g><g transform="translate(124 2401)"><rect width="24" height="24" fill="none"/><path d="M303.674,413.305a.51.51,0,0,0-.413-.348l-6.793-.979-3.036-6.111a.51.51,0,0,0-.914,0l-3.037,6.107-6.793.983a.51.51,0,0,0-.282.872l4.912,4.755-1.159,6.714a.511.511,0,0,0,.739.54l6.076-3.172,6.076,3.172a.509.509,0,0,0,.537-.041.511.511,0,0,0,.2-.5l-1.159-6.714,4.912-4.755A.509.509,0,0,0,303.674,413.305Z" transform="translate(-280.976 -403.742)" fill="#37d243"/></g><g transform="translate(195.991 2401)"><rect width="24" height="24" transform="translate(0.009)" fill="none"/><path d="M303.674,413.305a.51.51,0,0,0-.413-.348l-6.793-.979-3.036-6.111a.51.51,0,0,0-.914,0l-3.037,6.107-6.793.983a.51.51,0,0,0-.282.872l4.912,4.755-1.159,6.714a.511.511,0,0,0,.739.54l6.076-3.172,6.076,3.172a.509.509,0,0,0,.537-.041.511.511,0,0,0,.2-.5l-1.159-6.714,4.912-4.755A.509.509,0,0,0,303.674,413.305Z" transform="translate(-280.976 -403.742)" fill="#37d243"/></g><g transform="translate(219.991 2401)"><rect width="24" height="24" transform="translate(0.009)" fill="none"/><path d="M303.674,413.305a.51.51,0,0,0-.413-.348l-6.793-.979-3.036-6.111a.51.51,0,0,0-.914,0l-3.037,6.107-6.793.983a.51.51,0,0,0-.282.872l4.912,4.755-1.159,6.714a.511.511,0,0,0,.739.54l6.076-3.172,6.076,3.172a.509.509,0,0,0,.537-.041.511.511,0,0,0,.2-.5l-1.159-6.714,4.912-4.755A.509.509,0,0,0,303.674,413.305Z" transform="translate(-280.976 -403.742)" fill="#37d243"/></g></g></svg>