<svg xmlns="http://www.w3.org/2000/svg" width="36" height="36" viewBox="0 0 36 36"><g transform="translate(-194 -193)"><rect width="36" height="36" transform="translate(194 193)" fill="none"/><g transform="translate(199 195.5)"><g transform="translate(0 6.453)"><path d="M291.707,432.153a1.353,1.353,0,0,1-.678-2.524l22.363-12.913a1.353,1.353,0,0,1,1.353,2.343l-22.363,12.912A1.347,1.347,0,0,1,291.707,432.153Z" transform="translate(-290.352 -416.535)" fill="#53dce1"/></g><g transform="translate(0 6.453)"><path d="M314.066,432.153a1.347,1.347,0,0,1-.675-.18L291.028,419.06a1.353,1.353,0,0,1,1.353-2.343l22.363,12.912a1.353,1.353,0,0,1-.678,2.524Z" transform="translate(-290.352 -416.535)" fill="#53dce1"/></g><g transform="translate(11.18 0)"><path d="M297.9,441.483a1.352,1.352,0,0,1-1.353-1.353V414.311a1.353,1.353,0,0,1,2.706,0V440.13A1.352,1.352,0,0,1,297.9,441.483Z" transform="translate(-296.55 -412.958)" fill="#53dce1"/></g><g transform="translate(0.319 4.775)"><path d="M291.883,423.9a1.354,1.354,0,0,1-.718-2.5l2.491-1.553.1-2.937a1.335,1.335,0,0,1,1.4-1.3,1.354,1.354,0,0,1,1.3,1.4l-.155,4.375L292.6,423.7A1.342,1.342,0,0,1,291.883,423.9Z" transform="translate(-290.529 -415.605)" fill="#53dce1"/></g><g transform="translate(7.952 2.237)"><path d="M299.34,418.8l-3.862-2.055a1.352,1.352,0,1,1,1.27-2.388l2.592,1.378,2.594-1.378a1.352,1.352,0,1,1,1.27,2.388Z" transform="translate(-294.76 -414.198)" fill="#53dce1"/></g><g transform="translate(18.814 4.775)"><path d="M305.364,423.9a1.341,1.341,0,0,1-.713-.206l-3.714-2.316-.155-4.375a1.357,1.357,0,0,1,1.306-1.4,1.338,1.338,0,0,1,1.4,1.3l.1,2.937,2.491,1.553a1.353,1.353,0,0,1-.718,2.5Z" transform="translate(-300.782 -415.605)" fill="#53dce1"/></g><g transform="translate(18.814 15.454)"><path d="M302.135,429.823h-.047a1.357,1.357,0,0,1-1.306-1.4l.155-4.375,3.712-2.318a1.354,1.354,0,0,1,1.434,2.3l-2.493,1.553-.1,2.937A1.352,1.352,0,0,1,302.135,429.823Z" transform="translate(-300.782 -421.525)" fill="#53dce1"/></g><g transform="translate(7.949 21.694)"><path d="M302.565,429.588a1.346,1.346,0,0,1-.635-.159l-2.59-1.378-2.592,1.378a1.353,1.353,0,0,1-1.272-2.388l3.864-2.056,3.862,2.056a1.353,1.353,0,0,1-.637,2.547Z" transform="translate(-294.759 -424.984)" fill="#53dce1"/></g><g transform="translate(0.316 15.455)"><path d="M295.107,429.823a1.353,1.353,0,0,1-1.351-1.306l-.1-2.937-2.489-1.555a1.353,1.353,0,1,1,1.434-2.295l3.711,2.318.152,4.374a1.355,1.355,0,0,1-1.306,1.4Z" transform="translate(-290.527 -421.525)" fill="#53dce1"/></g></g></g></svg>