<svg xmlns="http://www.w3.org/2000/svg" width="32" height="32" viewBox="0 0 32 32"><g transform="translate(-272 -143)"><rect width="32" height="32" transform="translate(272 143)" fill="none" opacity="0.32"/><g transform="translate(-359.672 -547.322)"><path d="M647.765,694.409l3.209,2.734a.772.772,0,0,0,.44.182l4.2.335a.774.774,0,0,1,.71.71l.335,4.2a.782.782,0,0,0,.182.441l2.735,3.208a.776.776,0,0,1,0,1l-2.735,3.208a.782.782,0,0,0-.182.441l-.335,4.2a.774.774,0,0,1-.71.71l-4.2.335a.773.773,0,0,0-.44.182l-3.209,2.734a.773.773,0,0,1-1,0l-3.209-2.734a.775.775,0,0,0-.441-.182l-4.2-.335a.774.774,0,0,1-.709-.71l-.336-4.2a.777.777,0,0,0-.182-.441l-2.734-3.208a.774.774,0,0,1,0-1l2.734-3.208a.777.777,0,0,0,.182-.441l.336-4.2a.774.774,0,0,1,.709-.71l4.2-.335a.774.774,0,0,0,.441-.182l3.209-2.734A.773.773,0,0,1,647.765,694.409Z" transform="translate(0 0)" fill="#6e4cdf"/><g transform="translate(642.407 701.996)"><line y1="8.229" x2="8.121" transform="translate(0.828 0.642)" fill="none" stroke="#fff" stroke-linecap="round" stroke-linejoin="round" stroke-width="1.5"/><circle cx="1.761" cy="1.761" r="1.761" transform="translate(0)" fill="none" stroke="#fff" stroke-linecap="round" stroke-linejoin="round" stroke-width="1.5"/><circle cx="1.761" cy="1.761" r="1.761" transform="translate(6.19 5.933)" fill="none" stroke="#fff" stroke-linecap="round" stroke-linejoin="round" stroke-width="1.5"/></g></g></g></svg>