<svg xmlns="http://www.w3.org/2000/svg" width="21.283" height="21" viewBox="0 0 21.283 21"><g transform="translate(-308.458 -224.458)"><rect width="21" height="21" transform="translate(308.458 224.458)" fill="none"/><g transform="translate(309.075 226.783)"><g transform="translate(0.519 0.688)"><g transform="translate(0.216 0.216)"><path d="M218.78,426.823l-13.086.07-3.041,4.612,9.623,10.032,9.594-10.136Z" transform="translate(-202.654 -426.823)" fill="#751485"/></g><path d="M212.3,441.779a.217.217,0,0,1-.158-.067l-9.623-10.032a.219.219,0,0,1-.025-.272l3.042-4.612a.22.22,0,0,1,.182-.1l13.086-.072h0a.222.222,0,0,1,.182.1l3.09,4.582a.22.22,0,0,1-.022.273l-9.594,10.136A.27.27,0,0,1,212.3,441.779ZM202.954,431.5l9.345,9.74,9.314-9.842-2.929-4.34-12.847.069Z" transform="translate(-202.457 -426.626)" fill="#751485"/></g><g transform="translate(0)"><g transform="translate(0 4.919)"><rect width="1.098" height="20.658" transform="translate(0 1.098) rotate(-89.518)" fill="#fff"/></g><g transform="translate(9.651)"><path d="M211.8,442.549l-1.026-.392,4.056-10.6-1.989-5.16,1.025-.395,2.14,5.553Z" transform="translate(-210.773 -425.999)" fill="#fff"/></g><g transform="translate(5.812)"><path d="M211.485,442.549l-4.208-11,2.14-5.553,1.025.395-1.988,5.16,4.057,10.6Z" transform="translate(-207.277 -425.999)" fill="#fff"/></g></g></g></g></svg>