<svg xmlns="http://www.w3.org/2000/svg" width="32" height="32" viewBox="0 0 32 32"><g transform="translate(-3627.391 423.216)"><rect width="32" height="32" transform="translate(3627.391 -423.216)" fill="#fff" opacity="0"/><g transform="translate(3631.313 -417.411)"><path d="M3645.153-419.8l-5.442,4.05-5.442-4.05c-1.045-.78-2.359.195-2.359,1.753V-407.8c0,1.567,1.311,2.533,2.359,1.753l5.442-4.05,5.442,4.05c1.045.78,2.359-.195,2.359-1.753v-10.246C3647.513-419.6,3646.2-420.577,3645.153-419.8Z" transform="translate(-3627.638 420.072)" fill="none" stroke="#8059ea" stroke-width="1"/><path d="M3652.555-417.965h-22.042a1.035,1.035,0,0,0-1.057,1.01v3.569a1.037,1.037,0,0,0,1.057,1.01h1.061v10.119a1.046,1.046,0,0,0,1.063,1.015h17.794a1.045,1.045,0,0,0,1.064-1.015v-10.119h1.061a1.035,1.035,0,0,0,1.057-1.01v-3.569a1.033,1.033,0,0,0-1.057-1.01Z" transform="translate(-3629.457 421.633)" fill="#8059ea"/><rect width="20.991" height="1.567" transform="translate(1.495 9.256)" fill="#fff"/><rect width="11.135" height="1.567" transform="translate(12.774 9.256) rotate(90)" fill="#fff"/></g></g></svg>