<svg xmlns="http://www.w3.org/2000/svg" width="36" height="36" viewBox="0 0 36 36"><g transform="translate(0 0)"><path d="M3433.584-356.792v-4.58a2.119,2.119,0,0,0-2.118-2.12h-24.022a2.12,2.12,0,0,0-2.118,2.12v4.35a3.975,3.975,0,0,1,3.727,3.97,3.976,3.976,0,0,1-3.727,3.97v4.57a2.121,2.121,0,0,0,2.118,2.12h24.022a2.12,2.12,0,0,0,2.118-2.12v-4.342a3.979,3.979,0,0,1-3.726-3.97A3.975,3.975,0,0,1,3433.584-356.792Zm-17.954,11.884a.779.779,0,0,1-.778.778h0a.779.779,0,0,1-.779-.778h0v-1.126a.778.778,0,0,1,.779-.778h0a.778.778,0,0,1,.778.778h0Zm0-4.98a.779.779,0,0,1-.778.778h0a.779.779,0,0,1-.779-.778h0v-1.126a.778.778,0,0,1,.779-.778h0a.778.778,0,0,1,.778.778h0Zm0-4.98a.779.779,0,0,1-.778.778h0a.778.778,0,0,1-.779-.778h0v-1.126a.778.778,0,0,1,.779-.778h0a.778.778,0,0,1,.778.778h0Zm0-4.98a.779.779,0,0,1-.778.778h0a.778.778,0,0,1-.779-.778h0v-1.126a.778.778,0,0,1,.779-.778h0a.778.778,0,0,1,.778.778h0Z" transform="translate(-3401.325 368.892)" fill="#ffa43d"/><rect width="36" height="36" transform="translate(0 0)" fill="none"/></g></svg>