<svg xmlns="http://www.w3.org/2000/svg" width="32" height="32" viewBox="0 0 32 32"><g transform="translate(-177 -117)"><g transform="translate(-3450.391 540.217)"><rect width="32" height="32" transform="translate(3627.391 -423.217)" fill="none"/></g><g transform="translate(-616.585 -578.637)"><g transform="translate(795.585 704.463)"><path d="M809.584,705.967H798.3a1.252,1.252,0,0,0-1.179,1.589l2.94,11.161a1.229,1.229,0,0,0,1.179.928h16.695a1.226,1.226,0,0,0,1.178-.928l2.94-11.161a1.251,1.251,0,0,0-1.178-1.589Z" transform="translate(-795.585 -704.463)" fill="#37d243"/><rect width="28" height="3.159" rx="1.58" fill="#37d243"/></g><g transform="translate(803.4 701.636)"><line x2="5.099" y2="5.653" fill="none" stroke="#37d243" stroke-linecap="round" stroke-linejoin="round" stroke-width="3"/><line x1="5.099" y2="5.653" transform="translate(7.271)" fill="none" stroke="#37d243" stroke-linecap="round" stroke-linejoin="round" stroke-width="3"/></g><g transform="translate(808.719 710.336)"><circle cx="7.05" cy="7.05" r="7.05" fill="#37d243" stroke="#fff" stroke-miterlimit="10" stroke-width="1.5"/><g transform="translate(3.959 3.959)"><line x2="6.181" transform="translate(0 3.091)" fill="#37d243" stroke="#fff" stroke-linecap="round" stroke-linejoin="round" stroke-width="1.7"/><line y1="6.181" transform="translate(3.091)" fill="#37d243" stroke="#fff" stroke-linecap="round" stroke-linejoin="round" stroke-width="1.7"/></g></g></g></g></svg>