<svg xmlns="http://www.w3.org/2000/svg" width="36" height="36" viewBox="0 0 36 36"><g transform="translate(0)"><rect width="36" height="36" transform="translate(0)" fill="none"/><g transform="translate(7.266 1.8)"><path d="M3622.693-343.149h-3.114v-2.34a3.415,3.415,0,0,0-2.782-3.356v-1.118a17.857,17.857,0,0,1,2.4-5.882,6.315,6.315,0,0,0,.768-1.94,4.56,4.56,0,0,0,.141-1.1v-.238a6.337,6.337,0,0,0-6.342-6.334h0a6.337,6.337,0,0,0-6.332,6.344h0v.228a4.658,4.658,0,0,0,.14,1.1,6.333,6.333,0,0,0,.768,1.94,17.8,17.8,0,0,1,2.4,5.888h0v1.112a3.418,3.418,0,0,0-2.784,3.356v2.34h-3.129a1.8,1.8,0,0,0-1.8,1.8h0v3.058a1.8,1.8,0,0,0,1.8,1.8h17.867a1.8,1.8,0,0,0,1.8-1.8h0v-3.058A1.8,1.8,0,0,0,3622.693-343.149Z" transform="translate(-3603.023 365.461)" fill="#37d243"/><rect width="12.75" height="1.8" transform="translate(4.359 14.94)" fill="#fff"/></g></g></svg>