<svg width="40" height="40" viewBox="0 0 40 40" fill="none" xmlns="http://www.w3.org/2000/svg">
<path d="M10.4 13H10C8.89543 13 8 13.8954 8 15V31C8 31.5523 8.44772 32 9 32H31C31.5523 32 32 31.5523 32 31V15C32 13.8954 31.1046 13 30 13H29.6" stroke="black" stroke-width="1.8" stroke-linejoin="round"/>
<path d="M36 32L4 32" stroke="black" stroke-width="1.8" stroke-linejoin="round"/>
<path d="M24.5452 6H15.4543C12.3163 6 9.77246 8.54384 9.77246 11.6818C9.77246 14.8198 12.3163 17.3636 15.4543 17.3636H24.5452C27.6832 17.3636 30.227 14.8198 30.227 11.6818C30.227 8.54384 27.6832 6 24.5452 6Z" stroke="black" stroke-width="1.8" stroke-linejoin="round"/>
<path d="M19.7356 30.0429L19.7343 30.0417C18.1711 28.6256 16.9469 27.5139 16.1026 26.4827C15.2687 25.464 14.9 24.6341 14.9 23.797C14.9 22.4485 15.9483 21.4 17.3 21.4C18.0072 21.4 18.778 21.8288 19.315 22.4588L20 23.2624L20.685 22.4588C21.222 21.8288 21.9928 21.4 22.7 21.4C24.0517 21.4 25.1 22.4485 25.1 23.797C25.1 24.6341 24.7313 25.464 23.8972 26.4837C23.0528 27.5157 21.8288 28.6286 20.2659 30.0476C20.2656 30.0478 20.2653 30.0481 20.265 30.0484L20.0023 30.2855L19.7356 30.0429Z" fill="#FF9ACA" stroke="black" stroke-width="1.8"/>
<path d="M24.887 9.00456C24.6754 9.00456 24.4725 9.08836 24.3229 9.23753C24.1732 9.38671 24.0892 9.58902 24.0892 9.79999V11.6182C24.1118 11.7814 24.099 11.9476 24.0517 12.1055C24.0045 12.2633 23.9238 12.4093 23.8152 12.5335C23.7067 12.6577 23.5726 12.7573 23.4222 12.8255C23.2718 12.8937 23.1084 12.929 22.9432 12.929C22.7779 12.929 22.6146 12.8937 22.4641 12.8255C22.3137 12.7573 22.1797 12.6577 22.0711 12.5335C21.9625 12.4093 21.8819 12.2633 21.8346 12.1055C21.7873 11.9476 21.7746 11.7814 21.7971 11.6182V9.79205C21.8 9.68862 21.7821 9.58566 21.7444 9.48927C21.7067 9.39287 21.65 9.305 21.5776 9.23084C21.5052 9.15668 21.4187 9.09771 21.3231 9.05748C21.2275 9.01725 21.1247 8.99654 21.021 8.99658C20.8094 8.99658 20.6064 9.08038 20.4568 9.22956C20.3072 9.37873 20.2231 9.58108 20.2231 9.79205V11.6523C20.2053 12.1996 20.3538 12.7395 20.6492 13.2011C20.9446 13.6628 21.3731 14.0246 21.8784 14.2392C22.3838 14.4537 22.9423 14.511 23.4808 14.4034C24.0194 14.2958 24.5127 14.0284 24.8962 13.6364C25.4096 13.09 25.691 12.3668 25.6815 11.6182V9.79205C25.6815 9.58108 25.5974 9.37873 25.4478 9.22956C25.2982 9.08038 25.0952 8.99658 24.8836 8.99658" fill="black"/>
<path d="M24.887 9.00456C24.6754 9.00456 24.4725 9.08836 24.3229 9.23753C24.1732 9.38671 24.0892 9.58902 24.0892 9.79999V11.6182C24.1118 11.7814 24.099 11.9476 24.0517 12.1055C24.0045 12.2633 23.9238 12.4093 23.8152 12.5335C23.7067 12.6577 23.5726 12.7573 23.4222 12.8255C23.2718 12.8937 23.1084 12.929 22.9432 12.929C22.7779 12.929 22.6146 12.8937 22.4641 12.8255C22.3137 12.7573 22.1797 12.6577 22.0711 12.5335C21.9625 12.4093 21.8819 12.2633 21.8346 12.1055C21.7873 11.9476 21.7746 11.7814 21.7971 11.6182V9.79205C21.8 9.68862 21.7821 9.58566 21.7444 9.48927C21.7067 9.39287 21.65 9.305 21.5776 9.23084C21.5052 9.15668 21.4187 9.09771 21.3231 9.05748C21.2275 9.01725 21.1247 8.99654 21.021 8.99658C20.8094 8.99658 20.6064 9.08038 20.4568 9.22956C20.3072 9.37873 20.2231 9.58108 20.2231 9.79205V11.6523C20.2053 12.1996 20.3538 12.7395 20.6492 13.2011C20.9446 13.6628 21.3731 14.0246 21.8784 14.2392C22.3838 14.4537 22.9423 14.511 23.4808 14.4034C24.0194 14.2958 24.5127 14.0284 24.8962 13.6364C25.4096 13.09 25.691 12.3668 25.6815 11.6182V9.79205C25.6815 9.58108 25.5974 9.37873 25.4478 9.22956C25.2982 9.08038 25.0952 8.99658 24.8836 8.99658" stroke="black" stroke-width="0.1"/>
<path d="M18.6182 12.3421C18.4074 12.3406 18.2045 12.4223 18.054 12.5694C17.8736 12.7434 17.6464 12.8614 17.3999 12.909C17.1535 12.9565 16.8985 12.9315 16.666 12.8371C16.4336 12.7427 16.2337 12.5828 16.0908 12.3771C15.9478 12.1714 15.868 11.9286 15.8611 11.6785C15.8689 11.341 16.0102 11.0204 16.2543 10.7864C16.4936 10.5497 16.817 10.4169 17.1541 10.4169C17.4912 10.4169 17.8147 10.5497 18.054 10.7864C18.1252 10.8699 18.2131 10.9378 18.3119 10.9858C18.4107 11.0339 18.5185 11.061 18.6283 11.0656C18.7382 11.0701 18.8478 11.052 18.9503 11.0123C19.0528 10.9726 19.146 10.9123 19.2239 10.835C19.3019 10.7577 19.3631 10.6652 19.4035 10.5632C19.4439 10.4613 19.4628 10.3521 19.4589 10.2425C19.4549 10.133 19.4284 10.0254 19.3808 9.92658C19.3332 9.82775 19.2656 9.73979 19.1823 9.66822C18.7838 9.27099 18.2761 9.00052 17.7234 8.89096C17.1707 8.78141 16.5978 8.8377 16.0772 9.05274C15.5566 9.26778 15.1116 9.63191 14.7985 10.0991C14.4855 10.5662 14.3184 11.1155 14.3184 11.6773C14.3184 12.2392 14.4855 12.7884 14.7985 13.2556C15.1116 13.7227 15.5566 14.0869 16.0772 14.3019C16.5978 14.5169 17.1707 14.5733 17.7234 14.4637C18.2761 14.3542 18.7838 14.0837 19.1823 13.6864C19.2916 13.5744 19.3653 13.4329 19.3943 13.2794C19.4234 13.1259 19.4065 12.9673 19.3457 12.8233C19.2849 12.6793 19.183 12.5564 19.0526 12.4698C18.9222 12.3832 18.7691 12.3368 18.6125 12.3364" fill="black"/>
<path d="M18.6182 12.3421C18.4074 12.3406 18.2045 12.4223 18.054 12.5694C17.8736 12.7434 17.6464 12.8614 17.3999 12.909C17.1535 12.9565 16.8985 12.9315 16.666 12.8371C16.4336 12.7427 16.2337 12.5828 16.0908 12.3771C15.9478 12.1714 15.868 11.9286 15.8611 11.6785C15.8689 11.341 16.0102 11.0204 16.2543 10.7864C16.4936 10.5497 16.817 10.4169 17.1541 10.4169C17.4912 10.4169 17.8147 10.5497 18.054 10.7864C18.1252 10.8699 18.2131 10.9378 18.3119 10.9858C18.4107 11.0339 18.5185 11.061 18.6283 11.0656C18.7382 11.0701 18.8478 11.052 18.9503 11.0123C19.0528 10.9726 19.146 10.9123 19.2239 10.835C19.3019 10.7577 19.3631 10.6652 19.4035 10.5632C19.4439 10.4613 19.4628 10.3521 19.4589 10.2425C19.4549 10.133 19.4284 10.0254 19.3808 9.92658C19.3332 9.82775 19.2656 9.73979 19.1823 9.66822C18.7838 9.27099 18.2761 9.00052 17.7234 8.89096C17.1707 8.78141 16.5978 8.8377 16.0772 9.05274C15.5566 9.26778 15.1116 9.63191 14.7985 10.0991C14.4855 10.5662 14.3184 11.1155 14.3184 11.6773C14.3184 12.2392 14.4855 12.7884 14.7985 13.2556C15.1116 13.7227 15.5566 14.0869 16.0772 14.3019C16.5978 14.5169 17.1707 14.5733 17.7234 14.4637C18.2761 14.3542 18.7838 14.0837 19.1823 13.6864C19.2916 13.5744 19.3653 13.4329 19.3943 13.2794C19.4234 13.1259 19.4065 12.9673 19.3457 12.8233C19.2849 12.6793 19.183 12.5564 19.0526 12.4698C18.9222 12.3832 18.7691 12.3368 18.6125 12.3364" stroke="black" stroke-width="0.1"/>
</svg>
