<svg xmlns="http://www.w3.org/2000/svg" width="32" height="32" viewBox="0 0 32 32">
  <g id="그룹_60042" data-name="그룹 60042" transform="translate(1654 4817)">
    <rect id="사각형_5844" data-name="사각형 5844" width="32" height="32" transform="translate(-1654 -4817)" fill="none"/>
    <g id="Home" transform="translate(-1654 -4816.854)">
      <path id="패스_17718" data-name="패스 17718" d="M7,27.75H7A3.754,3.754,0,0,1,3.25,24V12.828a3.749,3.749,0,0,1,1.626-3.09l8.434-5.8a4.75,4.75,0,0,1,5.382,0l8.433,5.8a3.749,3.749,0,0,1,1.626,3.09V24A3.754,3.754,0,0,1,25,27.75ZM16,4.6a3.236,3.236,0,0,0-1.841.572l-8.434,5.8a2.25,2.25,0,0,0-.975,1.854V24A2.253,2.253,0,0,0,7,26.25H25A2.253,2.253,0,0,0,27.25,24V12.828a2.25,2.25,0,0,0-.975-1.854l-8.433-5.8A3.236,3.236,0,0,0,16,4.6Z" fill="#555"/>
      <path id="패스_17719" data-name="패스 17719" d="M21.733,14.858a.934.934,0,0,0-.934.934v2.156a1.355,1.355,0,1,1-2.681,0V15.791a.912.912,0,0,0-.908-.934.934.934,0,0,0-.933.934v2.2A3.166,3.166,0,0,0,19.459,21.3a3.124,3.124,0,0,0,2.289-.973,3.434,3.434,0,0,0,.918-2.383V15.791A.934.934,0,0,0,21.733,14.858Z" fill="#555"/>
      <path id="패스_17720" data-name="패스 17720" d="M14.4,18.8a.926.926,0,0,0-.66.273,1.49,1.49,0,0,1-2.105,0,1.435,1.435,0,0,1,0-2.105,1.489,1.489,0,0,1,2.105,0,.933.933,0,1,0,1.32-1.32,3.355,3.355,0,1,0,0,4.746A.933.933,0,0,0,14.4,18.8Z" fill="#555"/>
    </g>
  </g>
</svg>
