<svg xmlns="http://www.w3.org/2000/svg" width="36" height="36" viewBox="0 0 36 36"><g transform="translate(-341 -255)"><rect width="36" height="36" transform="translate(341 255)" fill="none"/><g transform="translate(344 255.6)"><g transform="translate(0 7.527)"><path d="M221.866,440.073l20.909-8.183-12.728-12.728Z" transform="translate(-220.966 -418.262)" fill="#ffa43d"/><path d="M222.266,441.372a.9.9,0,0,1-.839-1.228l8.181-20.911a.9.9,0,0,1,1.474-.308l12.728,12.728a.9.9,0,0,1-.308,1.474l-20.909,8.183A.9.9,0,0,1,222.266,441.372Zm8.518-20.2-6.93,17.714,17.712-6.932Z" transform="translate(-221.366 -418.662)" fill="#ffa43d"/></g><g transform="translate(16.911 5.527)"><path d="M231.661,425.351a.9.9,0,0,1-.637-1.537l6-6a.9.9,0,1,1,1.273,1.273l-6,6A.891.891,0,0,1,231.661,425.351Z" transform="translate(-230.761 -417.551)" fill="#ffa43d"/></g><g transform="translate(20.91 14.222)"><path d="M241.884,427.487a.9.9,0,0,1-.9-.9c0-1.568-.628-1.957-.833-2.083-1.492-.923-4.817.365-5.864.889a.9.9,0,0,1-.806-1.611c.506-.25,5.009-2.425,7.618-.81a3.925,3.925,0,0,1,1.687,3.614A.9.9,0,0,1,241.884,427.487Z" transform="translate(-232.983 -422.381)" fill="#ffa43d"/></g><g transform="translate(8.91 0)"><path d="M230.865,423.807a.872.872,0,0,1-.223-.029.9.9,0,0,1-.65-1.093c.29-1.138.841-4.666-.373-5.924-.167-.175-.684-.707-2.214-.374a.9.9,0,0,1-.38-1.76,3.93,3.93,0,0,1,3.892.887c2.124,2.207.959,7.069.819,7.616A.9.9,0,0,1,230.865,423.807Z" transform="translate(-226.316 -414.48)" fill="#ffa43d"/></g></g></g></svg>