<svg xmlns="http://www.w3.org/2000/svg" width="36" height="36" viewBox="0 0 36 36"><g transform="translate(-320 -287)"><rect width="36" height="36" transform="translate(320 287)" fill="none"/><g transform="translate(327.2 288.8)"><path d="M3568.047-353.623c0-6.914-4.674-12.52-10.437-12.52s-10.438,5.6-10.438,12.52c0,6.26,3.833,11.432,8.838,12.358l-.845,1.892a.752.752,0,0,0,.371.994.761.761,0,0,0,.3.068h3.545a.752.752,0,0,0,.742-.758.719.719,0,0,0-.068-.3l-.844-1.892C3564.216-342.193,3568.047-347.363,3568.047-353.623Z" transform="translate(-3547.171 366.143)" fill="#37d243"/><path d="M3552.476-352.446s1.9,1.17,0,2.216,2.312,1.3.842,2.094" transform="translate(-3542.366 379.84)" fill="#fff" stroke="#37d243" stroke-linecap="round" stroke-linejoin="round" stroke-width="0.5"/><path d="M3558.134-359.621a8.808,8.808,0,0,1-4.337,7.678" transform="translate(-3540.328 372.777)" fill="none" stroke="#fff" stroke-linecap="round" stroke-miterlimit="10" stroke-width="1"/></g></g></svg>