<svg xmlns="http://www.w3.org/2000/svg" width="21" height="21" viewBox="0 0 21 21"><g transform="translate(-181 -269)"><g transform="translate(0 -169)"><rect width="21" height="21" transform="translate(181 438)" fill="#fff" opacity="0"/><g transform="translate(-23 -1)"><path d="M-1797.254-492H-1807a1,1,0,0,1-1-1v-9a1,1,0,0,1,1-1h10.75a1,1,0,0,1,1,1v2.432a6.114,6.114,0,0,1,4.25,5.822,1.746,1.746,0,0,1-1.746,1.746Z" transform="translate(2014 946)" fill="#53dce1"/><g transform="translate(208 452)" fill="#53dce1" stroke="#fff" stroke-width="1"><circle cx="2.5" cy="2.5" r="2.5" stroke="none"/><circle cx="2.5" cy="2.5" r="2" fill="none"/></g><g transform="translate(216 452)" fill="#53dce1" stroke="#fff" stroke-width="1"><circle cx="2.5" cy="2.5" r="2.5" stroke="none"/><circle cx="2.5" cy="2.5" r="2" fill="none"/></g></g></g></g></svg>