<svg xmlns="http://www.w3.org/2000/svg" width="40" height="40" viewBox="0 0 40 40"><g transform="translate(-304 -524)"><g transform="translate(-7789.146 -7491.242)"><rect width="40" height="40" transform="translate(8093.146 8015.242)" fill="none"/></g><g transform="translate(0 -1)"><g transform="translate(-7789.146 -7491.242)"><rect width="22" height="18" rx="2.007" transform="translate(8101.146 8028.242)" fill="#fff" stroke="#222" stroke-linecap="round" stroke-linejoin="round" stroke-width="1.5"/><path d="M2,0H5A2,2,0,0,1,7,2V9A0,0,0,0,1,7,9H0A0,0,0,0,1,0,9V2A2,2,0,0,1,2,0Z" transform="translate(8106.146 8037.242)" fill="#fff" stroke="#222" stroke-linecap="round" stroke-linejoin="round" stroke-width="1.5"/></g><g transform="translate(-7787.146 -7497.242)"><rect width="18" height="10" rx="5" transform="translate(8101.146 8028.242)" fill="#fff" stroke="#222" stroke-linecap="round" stroke-linejoin="round" stroke-width="1.5"/></g><g transform="translate(-7791.146 -7494.365)"><circle cx="4.408" cy="4.408" r="4.408" transform="translate(8119.548 8041.365)" fill="#fff" stroke="#222" stroke-miterlimit="10" stroke-width="1.5"/><line x2="3.117" y2="3.117" transform="translate(8127.074 8048.89)" fill="#fff" stroke="#222" stroke-linecap="round" stroke-width="1.5"/></g><g transform="translate(82.069 173.893)"><path d="M352.247,362.7a.7.7,0,0,0-.7.7V365a1.015,1.015,0,1,1-2.011,0v-1.607a.681.681,0,0,0-.681-.7.7.7,0,0,0-.7.7v1.637a2.39,2.39,0,0,0,4.1,1.746,2.55,2.55,0,0,0,.689-1.776v-1.607a.7.7,0,0,0-.7-.7" transform="translate(-107.016 -2.949)" fill="#222"/><path d="M239.731,362.688a.7.7,0,0,0-.495.2,1.135,1.135,0,0,1-1.924-.784,1.125,1.125,0,0,1,.345-.785,1.121,1.121,0,0,1,1.579,0,.7.7,0,1,0,.99-.984,2.5,2.5,0,1,0,0,3.536.7.7,0,0,0-.5-1.188" transform="translate(0 0)" fill="#222"/></g></g></g></svg>