<svg xmlns="http://www.w3.org/2000/svg" width="36" height="36" viewBox="0 0 36 36"><g transform="translate(-257 -198)"><rect width="36" height="36" transform="translate(257 198)" fill="none"/><g transform="translate(258 199.885)"><g transform="translate(21.104 21.201)"><path d="M232.489,462.9h5.335a1,1,0,0,1,1,1v0h0a1,1,0,0,1-1,1h-5.339a1,1,0,0,1-1-1h0A1,1,0,0,1,232.489,462.9Z" transform="translate(-226.257 -462.896)" fill="#53dce1"/><path d="M229.582,465.3h10.57a1,1,0,0,1,1,1h0a1,1,0,0,1-1,1h-10.57a1,1,0,0,1-1-1h0A1,1,0,0,1,229.582,465.3Z" transform="translate(-228.583 -460.973)" fill="#53dce1"/></g><g transform="translate(0.9 0.905)"><path d="M226.1,478.827h0a1.1,1.1,0,0,1-.958-.554l-7.337-11.459a1.085,1.085,0,0,1-.2-.7l.025-.461.461.036,15.473,1.222,5.353-14.546-.067-.531.572.068a1.079,1.079,0,0,1,.828.536l7.335,11.457a1.1,1.1,0,0,1-.229,1.523l-.016.011-.016.011-20.675,13.237-.016.011-.018.009A1.119,1.119,0,0,1,226.1,478.827Z" transform="translate(-217.159 -451.449)" fill="#53dce1"/><path d="M239.573,452.52a.162.162,0,0,1,0,.083l-5.458,14.83a.186.186,0,0,1-.178.113l-15.682-1.238a.646.646,0,0,0,.117.423l7.353,11.482a.654.654,0,0,0,.882.257l20.677-13.239a.649.649,0,0,0,.131-.909l-7.353-11.482a.631.631,0,0,0-.493-.32m0-.9a.683.683,0,0,1,.106.007,1.535,1.535,0,0,1,1.159.75l7.324,11.436a1.555,1.555,0,0,1-.329,2.135l-.061.043L227.1,479.228c-.022.014-.045.027-.068.04a1.587,1.587,0,0,1-.729.18,1.551,1.551,0,0,1-1.343-.77l-7.324-11.441a1.527,1.527,0,0,1-.272-.977.9.9,0,0,1,.968-.848l15.134,1.2,5.213-14.164a.9.9,0,0,1,.9-.823Z" transform="translate(-217.359 -451.62)" fill="#fff"/></g><g transform="translate(8.094 12.401)"><path d="M222.93,473.881a1.082,1.082,0,0,1-1.006-.7,1.093,1.093,0,0,1,.031-.835l.005-.009,0-.009,6.3-12.861a1.078,1.078,0,0,1,.974-.623l14.314-.34h.027a1.078,1.078,0,0,1,1.046,1.327,1.076,1.076,0,0,1-.477.664L223.52,473.7A1.079,1.079,0,0,1,222.93,473.881Z" transform="translate(-220.955 -457.607)" fill="#53dce1"/><path d="M243.981,459.807h-.005l-14.328.34h-.005a.177.177,0,0,0-.162.106l-6.309,12.874a.178.178,0,0,0,.261.223l20.637-13.216a.176.176,0,0,0,.061-.243.174.174,0,0,0-.149-.085m0-1.8a1.976,1.976,0,0,1,1.051,3.649L224.4,474.864a1.977,1.977,0,0,1-2.866-2.495l.016-.034,6.3-12.854a1.974,1.974,0,0,1,1.771-1.134l14.306-.338Z" transform="translate(-221.355 -458.007)" fill="#fff"/></g><path d="M233.971,468.449h-.056l-.013,0h-.011l-15.683-1.238-.877-.07.049-.878a1.56,1.56,0,0,1,.607-1.152l.029-.023.031-.02,20.677-13.237.031-.02.032-.016a1.484,1.484,0,0,1,.711-.175,1.825,1.825,0,0,1,.194.011l.707.077.086.684a.992.992,0,0,1-.045.533l-5.456,14.825A1.086,1.086,0,0,1,233.971,468.449Z" transform="translate(-216.479 -450.718)" fill="#53dce1"/><path d="M234.35,467.948a.182.182,0,0,0,.169-.113L239.977,453a.155.155,0,0,0,0-.081.644.644,0,0,0-.385.061l-20.677,13.237a.655.655,0,0,0-.252.49l15.682,1.237h.009m0,1.8c-.034,0-.068,0-.1,0l-.047,0L218.517,468.5a1.8,1.8,0,0,1-1.656-1.9,2.457,2.457,0,0,1,.958-1.816c.04-.029.081-.058.122-.085l20.675-13.237c.041-.027.083-.05.124-.074a2.45,2.45,0,0,1,1.426-.263,1.8,1.8,0,0,1,1.584,1.5,1.891,1.891,0,0,1-.085,1l-5.458,14.828-.005.014A1.987,1.987,0,0,1,234.35,469.748Z" transform="translate(-216.858 -451.117)" fill="#fff"/></g></g></svg>