<svg xmlns="http://www.w3.org/2000/svg" width="36" height="36" viewBox="0 0 36 36"><g transform="translate(-16 -43)"><rect width="36" height="36" transform="translate(16 43)" fill="none"/><path d="M3403.933-372.55a3.9,3.9,0,0,0-1.856-2.172c-2.1-1.284-1.434-6.1-1.756-7.638a9.075,9.075,0,0,0-7.622-7.786v-1.372a1.74,1.74,0,0,0-1.74-1.742,1.741,1.741,0,0,0-1.741,1.742v1.372a9.1,9.1,0,0,0-7.623,7.786c-.32,1.544.353,6.354-1.755,7.638a3.915,3.915,0,0,0-1.856,2.172,2.559,2.559,0,0,0-.158.884v.11a5.16,5.16,0,0,0,.018.562,2.067,2.067,0,0,0,2.014,1.916h7.6a3.943,3.943,0,0,0-.044.432,3.545,3.545,0,0,0,3.524,3.562,3.541,3.541,0,0,0,3.564-3.524v-.038a3.024,3.024,0,0,0-.044-.432h7.6a2.055,2.055,0,0,0,2.014-1.916,4.338,4.338,0,0,0,.021-.562v-.11A2.492,2.492,0,0,0,3403.933-372.55Z" transform="translate(-3356.958 437.96)" fill="#ffd400"/></g></svg>