<svg xmlns="http://www.w3.org/2000/svg" width="36" height="36" viewBox="0 0 36 36"><g transform="translate(-308 -224)"><rect width="36" height="36" transform="translate(308 224)" fill="none"/><g transform="translate(309.799 228.6)"><g transform="translate(0.852 1.129)"><g transform="translate(0.354 0.355)"><path d="M229.089,426.823l-21.451.115-4.984,7.56,15.775,16.445,15.727-16.616Z" transform="translate(-202.654 -426.823)" fill="#53dce1"/></g><path d="M218.592,451.466a.356.356,0,0,1-.259-.11l-15.775-16.445a.359.359,0,0,1-.041-.446l4.986-7.56a.361.361,0,0,1,.3-.16l21.451-.119h0a.364.364,0,0,1,.3.158l5.065,7.511a.361.361,0,0,1-.036.448L218.853,451.36A.442.442,0,0,1,218.592,451.466Zm-15.32-16.846,15.318,15.966,15.268-16.133-4.8-7.114-21.06.113Z" transform="translate(-202.457 -426.626)" fill="#53dce1"/></g><g transform="translate(0 8.063)"><rect width="1.8" height="33.863" transform="translate(0 1.8) rotate(-89.518)" fill="#fff"/></g><g transform="translate(15.82)"><path d="M212.454,453.129l-1.681-.643,6.649-17.381-3.26-8.459,1.68-.647,3.509,9.1Z" transform="translate(-210.773 -425.999)" fill="#fff"/></g><g transform="translate(9.527)"><path d="M214.175,453.129l-6.9-18.028,3.508-9.1,1.68.647-3.259,8.459,6.651,17.381Z" transform="translate(-207.277 -425.999)" fill="#fff"/></g></g></g></svg>