<svg xmlns="http://www.w3.org/2000/svg" width="40" height="40" viewBox="0 0 40 40">
  <g id="그룹_60035" data-name="그룹 60035" transform="translate(-883 -1528)">
    <rect id="사각형_5858" data-name="사각형 5858" width="40" height="40" transform="translate(883 1528)" fill="none"/>
    <g id="그룹_22328" data-name="그룹 22328" transform="translate(3 52.681)">
      <path id="패스_18054" data-name="패스 18054" d="M115.8,26.68H96.643A3.419,3.419,0,0,1,93.222,23.3L94.587,9.807V9.746a3.42,3.42,0,0,1,3.422-3.41h16.422a3.42,3.42,0,0,1,3.42,3.41v.061L119.223,23.3A3.418,3.418,0,0,1,115.8,26.68Z" transform="translate(794 1479.57)" fill="#fff"/>
      <path id="패스_18054_-_윤곽선" data-name="패스 18054 - 윤곽선" d="M115.806,27.43H96.643a4.168,4.168,0,0,1-4.171-4.12v-.042L93.837,9.746a4.177,4.177,0,0,1,4.17-4.16h16.424a4.177,4.177,0,0,1,4.17,4.158v.025l1.372,13.5v.042a4.168,4.168,0,0,1-4.167,4.12Zm-21.833-4.1a2.679,2.679,0,0,0,2.668,2.6h19.165a2.678,2.678,0,0,0,2.667-2.6L117.1,9.845v-.1a2.674,2.674,0,0,0-2.67-2.66H98.009a2.675,2.675,0,0,0-2.672,2.662v.1Z" transform="translate(794 1479.57)" fill="#222"/>
      <path id="패스_18055" data-name="패스 18055" d="M100.33,9.7a.75.75,0,0,1-.75-.75V6.735a6.735,6.735,0,0,1,13.47,0V8.949a.75.75,0,0,1-1.5,0V6.735a5.235,5.235,0,0,0-10.47,0V8.95A.75.75,0,0,1,100.33,9.7Z" transform="translate(794 1479.57)" fill="#222"/>
      <path id="패스_18057" data-name="패스 18057" d="M123.223,22.7a6.04,6.04,0,0,0-6.059-6.018h-.089a6.122,6.122,0,0,0-5.974,5.942,6.012,6.012,0,0,0,3.721,5.6.524.524,0,0,1,.224.177l1.938,3.186a.223.223,0,0,0,.307.05.237.237,0,0,0,.05-.05l1.938-3.177a.519.519,0,0,1,.224-.177A6.01,6.01,0,0,0,123.223,22.7Z" transform="translate(794 1479.57)" fill="#fff"/>
      <path id="패스_18057_-_윤곽선" data-name="패스 18057 - 윤곽선" d="M117.184,15.93a6.8,6.8,0,0,1,6.789,6.765V22.7a6.742,6.742,0,0,1-4.112,6.2l-1.9,3.109-.019.026a.985.985,0,0,1-.209.209l-.016.011a.968.968,0,0,1-.556.175.98.98,0,0,1-.779-.389l-.022-.03-1.9-3.121a6.762,6.762,0,0,1-4.113-6.274V22.6a6.871,6.871,0,0,1,6.706-6.67Zm5.289,6.768a5.3,5.3,0,0,0-5.289-5.268h-.1a5.371,5.371,0,0,0-5.233,5.206,5.239,5.239,0,0,0,3.257,4.9,1.275,1.275,0,0,1,.546.432l.033.049,1.476,2.427,1.508-2.467a1.269,1.269,0,0,1,.547-.432A5.246,5.246,0,0,0,122.473,22.7Z" transform="translate(794 1479.57)" fill="#222"/>
      <path id="패스_18059" data-name="패스 18059" d="M117.057,20.05a2.8,2.8,0,1,1-2.8,2.8A2.8,2.8,0,0,1,117.057,20.05Z" transform="translate(794 1479.57)" fill="#fff"/>
      <path id="패스_18059_-_윤곽선" data-name="패스 18059 - 윤곽선" d="M117.057,19.3a3.552,3.552,0,1,1-3.553,3.553A3.557,3.557,0,0,1,117.057,19.3Zm0,5.6A2.052,2.052,0,1,0,115,22.853,2.055,2.055,0,0,0,117.057,24.905Z" transform="translate(794 1479.57)" fill="#222"/>
    </g>
  </g>
</svg>
