<svg xmlns="http://www.w3.org/2000/svg" width="21" height="21" viewBox="0 0 21 21"><g transform="translate(-166 -129)"><g transform="translate(-455 -1111)"><g transform="translate(621 1240)"><rect width="21" height="21" transform="translate(0 0)" fill="#fff" opacity="0"/></g><g transform="translate(623.22 1242)"><path d="M8.28,0a8.28,8.28,0,1,0,8.28,8.28A8.28,8.28,0,0,0,8.28,0" transform="translate(0 0)" fill="#ff3131"/><path d="M-1972.837-630.519l-2.6-2.586a.63.63,0,0,1,.044-.889.63.63,0,0,1,.889-.044l2.084,2.072,3.568-3.567a.659.659,0,0,1,.933,0,.661.661,0,0,1,0,.933l-3.969,3.969a.732.732,0,0,1-.06.068.691.691,0,0,1-.485.207A.565.565,0,0,1-1972.837-630.519Z" transform="translate(1979.707 641.849)" fill="#fff"/></g></g></g></svg>