<svg xmlns="http://www.w3.org/2000/svg" width="33" height="32" viewBox="0 0 33 32"><g transform="translate(-281 -117)"><rect width="33" height="32" transform="translate(281 117)" fill="none"/><g transform="translate(-403.875 -579.155)"><path d="M714.77,714.595l-13.028-15.274a.489.489,0,0,0-.734,0L687.98,714.595a.444.444,0,0,0,.367.724H692.9v9.035a.459.459,0,0,0,.472.444h16a.458.458,0,0,0,.472-.444v-9.035H714.4A.444.444,0,0,0,714.77,714.595Z" transform="translate(0 0)" fill="#ff973e"/><g transform="translate(696.981 710.696)"><line y1="7.445" x2="7.347" transform="translate(0.749 0.581)" fill="none" stroke="#fff" stroke-linecap="round" stroke-linejoin="round" stroke-width="1.2"/><circle cx="1.594" cy="1.594" r="1.594" fill="none" stroke="#fff" stroke-linecap="round" stroke-linejoin="round" stroke-width="1.2"/><circle cx="1.594" cy="1.594" r="1.594" transform="translate(5.601 5.368)" fill="none" stroke="#fff" stroke-linecap="round" stroke-linejoin="round" stroke-width="1.2"/></g></g></g></svg>