<svg xmlns="http://www.w3.org/2000/svg" width="36" height="36.2" viewBox="0 0 36 36.2"><g transform="translate(0 0.2)"><g transform="translate(5.867 -0.2)"><path d="M3654.587-373.745v-5.7a2.175,2.175,0,0,0-2.212-2.134,2.235,2.235,0,0,0-1.45.524v-.6a2.31,2.31,0,0,0-2.35-2.266,2.384,2.384,0,0,0-1.588.6v-.4a2.311,2.311,0,0,0-2.351-2.264,2.383,2.383,0,0,0-1.587.6v-6.112a2.311,2.311,0,0,0-2.351-2.266,2.311,2.311,0,0,0-2.35,2.266v15.82l-3.072-3.85a2.783,2.783,0,0,0-2.215-1.082,2.787,2.787,0,0,0-1.6.5,2.593,2.593,0,0,0-1.11,1.738,2.563,2.563,0,0,0,.491,1.956h0l7.573,9.4a8.943,8.943,0,0,0,7.67,3.418,10,10,0,0,0,5.414-1.2,5.99,5.99,0,0,0,.782-.6,5.727,5.727,0,0,0,.5-.52,6.308,6.308,0,0,0,1.027-1.73,13.162,13.162,0,0,0,.763-4.92v-.44C3654.587-373.273,3654.587-373.517,3654.587-373.745Z" transform="translate(-3630.321 393.759)" fill="#ffa43d"/><line y2="6.706" transform="translate(12.733 8.378)" fill="none"/><line y2="5.566" transform="translate(16.671 10.44)" fill="none"/><line y2="3.856" transform="translate(20.607 12.708)" fill="none"/></g><rect width="36" height="36" transform="translate(0 0)" fill="none"/></g></svg>