<svg xmlns="http://www.w3.org/2000/svg" width="36" height="36" viewBox="0 0 36 36"><g transform="translate(-3571.391 423.217)"><path d="M3599.538-412.2a5.725,5.725,0,0,0-7.145-2.3,5.838,5.838,0,0,0-5.5-6.076,5.8,5.8,0,0,0-5.486,5.782,5.711,5.711,0,0,0-7.03,2.348,5.853,5.853,0,0,0,2.782,7.766,7.173,7.173,0,0,0,.816.368c-.05.07-.1.136-.151.2a5.849,5.849,0,0,0,1.2,8.16,5.8,5.8,0,0,0,7.8-1.844,5.8,5.8,0,0,0,7.8,1.844,5.839,5.839,0,0,0,1.245-8.092,7.451,7.451,0,0,0,.887-.4A5.853,5.853,0,0,0,3599.538-412.2Zm-12.58,8.586a3.452,3.452,0,0,1-3.452-3.452,3.45,3.45,0,0,1,3.45-3.45h0a3.448,3.448,0,0,1,3.452,3.448v0A3.452,3.452,0,0,1,3586.958-403.617Z" transform="translate(2.436 -0.034)" fill="#ffa43d"/><rect width="36" height="36" transform="translate(3571.391 -423.217)" fill="none"/></g></svg>