<svg xmlns="http://www.w3.org/2000/svg" width="21" height="21" viewBox="0 0 21 21"><g transform="translate(-173 -157)"><g transform="translate(-1418 -1171)"><rect width="21" height="21" transform="translate(1591 1328)" fill="#fff" opacity="0"/><g transform="translate(1591 1328)"><path d="M18.81,7.059V4.387A1.236,1.236,0,0,0,17.575,3.15H3.565A1.237,1.237,0,0,0,2.33,4.387V6.925a2.321,2.321,0,0,1,0,4.632v2.666A1.237,1.237,0,0,0,3.565,15.46h14.01a1.237,1.237,0,0,0,1.235-1.237V11.69a2.32,2.32,0,0,1,0-4.631" fill="#37d243"/><g transform="translate(6.476 7.24)"><path d="M247.706,248.539a.575.575,0,0,0-.575.57l-.007,1.331a.832.832,0,1,1-1.644-.011l.008-1.324a.564.564,0,0,0-.555-.582.575.575,0,0,0-.574.572l-.009,1.354a1.945,1.945,0,0,0,1.941,2.051,1.9,1.9,0,0,0,1.407-.592,2.1,2.1,0,0,0,.57-1.462l.009-1.326a.574.574,0,0,0-.569-.58" transform="translate(-240.087 -248.391)" fill="#fff"/><path d="M222.753,250.31a.576.576,0,0,0-.406.164.9.9,0,0,1-.648.266.917.917,0,0,1-.645-.27.887.887,0,0,1,.009-1.3.914.914,0,0,1,1.291.007.572.572,0,0,0,.81,0,.574.574,0,0,0,.006-.811,2.057,2.057,0,0,0-2.913-.018,2.076,2.076,0,0,0-.016,2.923,2.055,2.055,0,0,0,2.911.016.578.578,0,0,0,.006-.813.557.557,0,0,0-.4-.171" transform="translate(-219.647 -247.759)" fill="#fff"/></g></g></g></g></svg>