<svg xmlns="http://www.w3.org/2000/svg" width="36" height="36" viewBox="0 0 36 36"><g transform="translate(-462 -163)"><rect width="36" height="36" transform="translate(462 163)" fill="none"/><g transform="translate(467.4 166.399)"><g transform="translate(0 0.9)"><g transform="translate(16)"><circle cx="5" cy="5" r="5" fill="#ff4121"/></g><circle cx="5" cy="5" r="5" fill="#ff4121"/></g><g transform="translate(1.1)"><circle cx="11" cy="11" r="11" transform="translate(0.9 0.9)" fill="#ff4121"/><path d="M262.62,463.623a11.9,11.9,0,1,1,11.9-11.9A11.914,11.914,0,0,1,262.62,463.623Zm0-22a10.1,10.1,0,1,0,10.1,10.1A10.113,10.113,0,0,0,262.62,441.623Z" transform="translate(-250.72 -439.823)" fill="#fff"/></g><g transform="translate(3.877 18.656)"><g transform="translate(12.001 0.003)"><path d="M259.223,450.481h0a1,1,0,0,1,1.413,0l4.243,4.243a1,1,0,0,1,0,1.415h0a1,1,0,0,1-1.411.005l0-.005-4.241-4.243A1,1,0,0,1,259.223,450.481Z" transform="translate(-258.93 -450.189)" fill="#ff4121"/></g><path d="M252.558,456.139h0a1,1,0,0,1-.007-1.408l.007-.007,4.241-4.243a1,1,0,0,1,1.409,0l.005,0h0a1,1,0,0,1,0,1.415l-4.243,4.243a1,1,0,0,1-1.413,0Z" transform="translate(-252.263 -450.188)" fill="#ff4121"/></g><g transform="translate(12.102 6.084)"><path d="M262.254,451.2h-4.522a.9.9,0,0,1-.9-.9v-6.2a.9.9,0,0,1,1.8,0v5.3h3.622a.9.9,0,1,1,0,1.8Z" transform="translate(-256.832 -443.203)" fill="#fff"/></g></g></g></svg>