<svg xmlns="http://www.w3.org/2000/svg" width="36" height="36" viewBox="0 0 36 36"><g transform="translate(-330 -209)"><rect width="36" height="36" transform="translate(330 209)" fill="none"/><g transform="translate(335.399 212.399)"><g transform="translate(0 0)"><g transform="translate(0 2.83)"><circle cx="11.628" cy="11.628" r="11.628" fill="#222"/></g><g transform="translate(12.87 0.815)"><rect width="4.471" height="8.946" rx="1" transform="translate(0 3.72) rotate(-56.31)" fill="#222"/></g><g transform="translate(18.126)"><path d="M290.71,462.249a.469.469,0,0,1-.194-.043.451.451,0,0,1-.211-.6c.058-.122,1.463-3,3.982-3.7a4.619,4.619,0,0,1,3.874.787.45.45,0,0,1-.5.749,3.76,3.76,0,0,0-3.137-.67c-2.126.587-3.395,3.2-3.407,3.22A.452.452,0,0,1,290.71,462.249Z" transform="translate(-290.26 -457.76)" fill="#222"/></g></g><g transform="translate(12.502 15.722)"><path d="M288.034,474.086a.9.9,0,0,1-.16-1.786,7.084,7.084,0,0,0,5.557-5.135.9.9,0,0,1,1.741.461,8.892,8.892,0,0,1-6.975,6.446A1.006,1.006,0,0,1,288.034,474.086Z" transform="translate(-287.136 -466.495)" fill="#fff"/></g></g></g></svg>