<svg xmlns="http://www.w3.org/2000/svg" width="32" height="32" viewBox="0 0 32 32"><g transform="translate(-315 -198)"><rect width="32" height="32" transform="translate(315 198)" fill="none"/><g transform="translate(316.982 198)"><circle cx="14.075" cy="14.075" r="14.075" fill="#ac7deb"/><g transform="translate(9.352 7.934)"><path d="M5516.089,3901.576a7,7,0,0,1,2.217.311,4.191,4.191,0,0,1,1.521.853,3.35,3.35,0,0,1,.884,1.3,4.542,4.542,0,0,1,.291,1.631v.278a4.7,4.7,0,0,1-.3,1.662,3.665,3.665,0,0,1-.917,1.371,4.466,4.466,0,0,1-1.528.934,6.064,6.064,0,0,1-2.167.349h-2.863v2.817a.935.935,0,0,1-.38.834,1.66,1.66,0,0,1-1.786,0,.935.935,0,0,1-.38-.834v-9.856a1.792,1.792,0,0,1,.366-1.292,1.9,1.9,0,0,1,1.325-.358Zm-2.863,6.541h2.527a3.479,3.479,0,0,0,1.964-.476,1.921,1.921,0,0,0,.716-1.732v-.217a2.255,2.255,0,0,0-.177-.972,1.522,1.522,0,0,0-.507-.608,2.053,2.053,0,0,0-.785-.319,5.258,5.258,0,0,0-.994-.087h-2.744Z" transform="translate(-5510.68 -3901.576)" fill="#fff"/></g></g></g></svg>