<svg xmlns="http://www.w3.org/2000/svg" width="21" height="21" viewBox="0 0 21 21"><g transform="translate(-196 -213)"><g transform="translate(-1395 -1115)"><rect width="21" height="21" transform="translate(1591 1328)" fill="#fff" opacity="0"/><g transform="translate(1591 1328)"><path d="M18.81,7.059V4.387A1.236,1.236,0,0,0,17.575,3.15H3.565A1.237,1.237,0,0,0,2.33,4.387V6.925a2.321,2.321,0,0,1,0,4.632v2.666A1.237,1.237,0,0,0,3.565,15.46h14.01a1.237,1.237,0,0,0,1.235-1.237V11.69a2.32,2.32,0,0,1,0-4.631" fill="#ff6632"/><g transform="translate(-0.29)"><path d="M3468.383-354.6a1.689,1.689,0,0,1-.641.317,2.922,2.922,0,0,1-.78.1,3.577,3.577,0,0,1-.606-.053,3.507,3.507,0,0,1-.563-.143.214.214,0,0,1-.1-.054.114.114,0,0,1-.021-.093l.063-.525a.1.1,0,0,1,.042-.084c.023-.014.068-.009.133.013.121.039.243.075.364.11a1.815,1.815,0,0,0,.371.067c.1.009.2.016.3.02a2.029,2.029,0,0,0,.3-.009,1.522,1.522,0,0,0,.287-.063,1.007,1.007,0,0,0,.255-.129.792.792,0,0,0,.337-.7.713.713,0,0,0-.074-.313.723.723,0,0,0-.228-.265,1.146,1.146,0,0,0-.4-.182,2.2,2.2,0,0,0-.577-.066h-.351a.1.1,0,0,1-.073-.019.106.106,0,0,1-.017-.072v-.518c0-.043.005-.068.017-.077a.119.119,0,0,1,.073-.015h.336a1.778,1.778,0,0,0,.371-.046,1.568,1.568,0,0,0,.42-.151,1.167,1.167,0,0,0,.346-.265.57.57,0,0,0,.144-.392.549.549,0,0,0-.091-.316.734.734,0,0,0-.234-.216,1.138,1.138,0,0,0-.312-.124,1.475,1.475,0,0,0-.315-.037,1.441,1.441,0,0,0-.228.021q-.13.021-.266.052c-.091.02-.183.046-.276.074s-.177.056-.251.083a.157.157,0,0,1-.12.019.112.112,0,0,1-.049-.08l-.063-.512a.086.086,0,0,1,.006-.076.185.185,0,0,1,.1-.063,4.546,4.546,0,0,1,.6-.175,2.8,2.8,0,0,1,.588-.063,2.566,2.566,0,0,1,.619.076,1.665,1.665,0,0,1,.54.239,1.234,1.234,0,0,1,.382.42,1.227,1.227,0,0,1,.146.615,1.126,1.126,0,0,1-.067.378,1.446,1.446,0,0,1-.185.358,1.471,1.471,0,0,1-.287.3,1.555,1.555,0,0,1-.364.216,1.747,1.747,0,0,1,.7.516,1.119,1.119,0,0,1,.238.7,1.6,1.6,0,0,1-.144.679A1.493,1.493,0,0,1,3468.383-354.6Z" transform="translate(-3458.082 366.208)" fill="#fff"/><path d="M3470.708-354.25c-.064,0-.1-.029-.1-.09v-4.145l-.517.449a.174.174,0,0,1-.08.035.086.086,0,0,1-.075-.021l-.313-.378a.086.086,0,0,1-.018-.067.127.127,0,0,1,.037-.073l1.071-.987a.207.207,0,0,1,.049-.029.2.2,0,0,1,.056-.013h.372a.26.26,0,0,1,.144.023.323.323,0,0,1,.025.166v5.04a.08.08,0,0,1-.091.09Z" transform="translate(-3457.427 366.218)" fill="#fff"/></g></g></g></g></svg>