<svg xmlns="http://www.w3.org/2000/svg" width="36" height="36" viewBox="0 0 36 36"><g transform="translate(-315 -198)"><rect width="36" height="36" transform="translate(315 198)" fill="none"/><g transform="translate(317.999 198)"><g transform="translate(0)"><circle cx="15.778" cy="15.778" r="15.778" fill="#ffd400"/></g><g transform="translate(1.482 1.499)"><path d="M338.394,443.718a1.141,1.141,0,0,1-.241-2.255,12.085,12.085,0,0,0,3.837-1.562,1.14,1.14,0,0,1,1.2,1.936,14.231,14.231,0,0,1-4.561,1.854A1.083,1.083,0,0,1,338.394,443.718Zm-6.747-.308a1.179,1.179,0,0,1-.342-.05,14.306,14.306,0,0,1-4.372-2.267,1.14,1.14,0,1,1,1.378-1.817,12,12,0,0,0,3.675,1.9,1.141,1.141,0,0,1-.339,2.23Zm15.577-6.326a1.143,1.143,0,0,1-1-1.687,12.031,12.031,0,0,0,1.318-3.933,1.151,1.151,0,0,1,1.3-.957,1.138,1.138,0,0,1,.954,1.3,14.376,14.376,0,0,1-1.569,4.68A1.137,1.137,0,0,1,347.224,437.084Zm-23.766-1.091a1.136,1.136,0,0,1-1.045-.692,14.324,14.324,0,0,1-1.134-4.8,1.138,1.138,0,0,1,1.068-1.205,1.118,1.118,0,0,1,1.2,1.071,12.115,12.115,0,0,0,.952,4.038,1.139,1.139,0,0,1-.6,1.5A1.105,1.105,0,0,1,323.458,435.993Zm24.492-9.951a1.136,1.136,0,0,1-1.063-.733,12.074,12.074,0,0,0-2.118-3.564,1.139,1.139,0,1,1,1.724-1.488,14.252,14.252,0,0,1,2.521,4.237,1.136,1.136,0,0,1-1.063,1.548Zm-24.212-1.107a1.175,1.175,0,0,1-.5-.116,1.144,1.144,0,0,1-.519-1.527,14.308,14.308,0,0,1,2.9-3.99,1.141,1.141,0,0,1,1.585,1.641,12.019,12.019,0,0,0-2.436,3.354A1.138,1.138,0,0,1,323.738,424.935Zm16.329-6.634a1.127,1.127,0,0,1-.385-.066,12.148,12.148,0,0,0-7.1-.326,1.142,1.142,0,0,1-.569-2.212,14.491,14.491,0,0,1,8.443.388,1.142,1.142,0,0,1-.385,2.217Z" transform="translate(-321.277 -415.246)" fill="#fff"/></g></g></g></svg>