<svg xmlns="http://www.w3.org/2000/svg" width="21" height="21" viewBox="0 0 21 21"><g transform="translate(-194 -241)"><g transform="translate(0 -169)"><rect width="21" height="21" transform="translate(194 410)" fill="#fff" opacity="0"/><g transform="translate(0 -1)"><g transform="translate(206 421.498)"><g transform="translate(0.202 0.202)"><path d="M4.479.5H.883A5.51,5.51,0,0,0,.5,2.643,2.368,2.368,0,0,0,2.719,5.092,2.307,2.307,0,0,0,4.862,2.643,5.51,5.51,0,0,0,4.479.5Z" transform="translate(-0.5 -0.5)" fill="#761585"/><line y2="2.449" transform="translate(2.219 4.592)" fill="none" stroke="#761585" stroke-linecap="round" stroke-linejoin="round" stroke-width="0.5"/><line x2="2.738" transform="translate(0.85 7.041)" fill="none" stroke="#761585" stroke-linecap="round" stroke-linejoin="round" stroke-width="0.5"/></g></g><g transform="translate(-25 2)"><path d="M3,0H3A3,3,0,0,1,6,3v8.25a.75.75,0,0,1-.75.75H.75A.75.75,0,0,1,0,11.25V3A3,3,0,0,1,3,0Z" transform="translate(224 415)" fill="#761585"/><rect width="2" height="9" rx="0.5" transform="translate(226 410)" fill="#761585"/></g></g></g></g></svg>