<svg xmlns="http://www.w3.org/2000/svg" width="36" height="36.2" viewBox="0 0 36 36.2"><g transform="translate(-281 -181.8)"><rect width="36" height="36" transform="translate(281 182)" fill="none"/><g transform="translate(282 181.8)"><g transform="translate(0 0)"><g transform="translate(6.844 6.836)"><path d="M203.539,380.175a9.155,9.155,0,0,1,9.155,9.155v0a9.153,9.153,0,0,1-9.153,9.157h0a9.157,9.157,0,0,1-.005-18.313Z" transform="translate(-193.482 -379.275)" fill="#ff3d3d"/><path d="M203.94,399.788a10.057,10.057,0,0,1-.007-20.113h.005a10.057,10.057,0,0,1,0,20.113Zm-.007-18.313a8.257,8.257,0,1,0,.005,0Z" transform="translate(-193.882 -379.675)" fill="#ff3d3d"/></g><g transform="translate(16)"><path d="M199.869,380.517a.9.9,0,0,1-.9-.9v-2.84a.9.9,0,1,1,1.8,0v2.84A.9.9,0,0,1,199.869,380.517Z" transform="translate(-198.969 -375.877)" fill="#ff3d3d"/><g transform="translate(0 29.16)"><path d="M199.869,396.717a.9.9,0,0,1-.9-.9v-2.84a.9.9,0,0,1,1.8,0v2.84A.9.9,0,0,1,199.869,396.717Z" transform="translate(-198.969 -392.077)" fill="#ff3d3d"/></g></g><g transform="translate(0 16)"><path d="M193.82,386.566h-2.84a.9.9,0,0,1,0-1.8h2.84a.9.9,0,0,1,0,1.8Z" transform="translate(-190.08 -384.766)" fill="#ff3d3d"/><g transform="translate(29.16)"><path d="M210.02,386.566h-2.84a.9.9,0,0,1,0-1.8h2.84a.9.9,0,0,1,0,1.8Z" transform="translate(-206.28 -384.766)" fill="#ff3d3d"/></g></g><g transform="translate(4.395 4.393)"><g transform="translate(21.204)"><path d="M205.2,382.127a.9.9,0,0,1-.635-1.537l2.009-2.009a.9.9,0,0,1,1.273,1.273l-2.009,2.009A.9.9,0,0,1,205.2,382.127Z" transform="translate(-204.302 -378.318)" fill="#ff3d3d"/></g><g transform="translate(0 21.206)"><path d="M193.42,393.908a.9.9,0,0,1-.635-1.535l2.009-2.011a.9.9,0,0,1,1.273,1.273l-2.009,2.011A.9.9,0,0,1,193.42,393.908Z" transform="translate(-192.522 -390.099)" fill="#ff3d3d"/></g></g><g transform="translate(4.395 4.393)"><path d="M195.429,382.127a.891.891,0,0,1-.635-.265l-2.009-2.009a.9.9,0,0,1,1.273-1.273l2.009,2.009a.9.9,0,0,1-.637,1.537Z" transform="translate(-192.522 -378.318)" fill="#ff3d3d"/><g transform="translate(21.204 21.206)"><path d="M207.211,393.908a.9.9,0,0,1-.635-.263l-2.009-2.011a.9.9,0,0,1,1.273-1.273l2.009,2.011a.9.9,0,0,1-.637,1.535Z" transform="translate(-204.302 -390.099)" fill="#ff3d3d"/></g></g></g></g></g></svg>