<svg xmlns="http://www.w3.org/2000/svg" width="32" height="32" viewBox="0 0 32 32"><g transform="translate(0 0)"><path d="M3429.647-357.725v-3.942a1.825,1.825,0,0,0-1.823-1.825h-20.676a1.824,1.824,0,0,0-1.823,1.825v3.744a3.421,3.421,0,0,1,3.207,3.417,3.422,3.422,0,0,1-3.207,3.417v3.933a1.826,1.826,0,0,0,1.823,1.825h20.676a1.826,1.826,0,0,0,1.823-1.825v-3.737a3.425,3.425,0,0,1-3.207-3.417A3.422,3.422,0,0,1,3429.647-357.725ZM3414.2-347.5a.671.671,0,0,1-.67.67h0a.671.671,0,0,1-.671-.67h0v-.969a.669.669,0,0,1,.671-.67h0a.67.67,0,0,1,.67.67h0Zm0-4.286a.671.671,0,0,1-.67.67h0a.671.671,0,0,1-.671-.67h0v-.969a.67.67,0,0,1,.671-.67h0a.67.67,0,0,1,.67.67h0Zm0-4.286a.671.671,0,0,1-.67.67h0a.669.669,0,0,1-.671-.67h0v-.969a.67.67,0,0,1,.671-.67h0a.67.67,0,0,1,.67.67h0Zm0-4.286a.671.671,0,0,1-.67.67h0a.669.669,0,0,1-.671-.67h0v-.969a.67.67,0,0,1,.671-.67h0a.67.67,0,0,1,.67.67h0Z" transform="translate(-3401.882 368.14)" fill="#ac7deb"/><rect width="32" height="32" transform="translate(0 0)" fill="none"/></g></svg>