<svg xmlns="http://www.w3.org/2000/svg" width="36" height="36" viewBox="0 0 36 36"><g transform="translate(0)"><rect width="36" height="36" transform="translate(0)" fill="none"/><g transform="translate(5.234 3.6)"><rect width="25.532" height="19.566" rx="1.467" transform="translate(0 3.701)" fill="#222"/><g transform="translate(5.082)"><path d="M3465.549-364.034h0a1,1,0,0,1,1,1v5.4a1,1,0,0,1-1,1h0a1,1,0,0,1-1-1v-5.4A1,1,0,0,1,3465.549-364.034Z" transform="translate(-3464.549 364.034)" fill="#222"/><path d="M3472.233-364.034h0a1,1,0,0,1,1,1v5.4a1,1,0,0,1-1,1h0a1,1,0,0,1-1-1v-5.4A1,1,0,0,1,3472.233-364.034Z" transform="translate(-3457.865 364.034)" fill="#222"/></g><g transform="translate(7.329 8.822)"><path d="M3470.319-351.019a2.894,2.894,0,0,1-1.1.544,5.011,5.011,0,0,1-1.337.176,6.116,6.116,0,0,1-1.039-.09,5.986,5.986,0,0,1-.966-.246.367.367,0,0,1-.168-.092.2.2,0,0,1-.036-.16l.108-.9a.176.176,0,0,1,.071-.144c.04-.024.117-.016.229.022.208.066.417.128.624.188a3.122,3.122,0,0,0,.636.114c.168.016.339.028.516.034a3.479,3.479,0,0,0,.522-.016,2.612,2.612,0,0,0,.492-.108,1.734,1.734,0,0,0,.438-.222,1.358,1.358,0,0,0,.577-1.2,1.219,1.219,0,0,0-.126-.536,1.235,1.235,0,0,0-.391-.454,1.968,1.968,0,0,0-.677-.312,3.768,3.768,0,0,0-.99-.114h-.6a.175.175,0,0,1-.126-.032.182.182,0,0,1-.029-.124v-.888c0-.074.01-.116.029-.132a.2.2,0,0,1,.126-.026h.576a3.047,3.047,0,0,0,.637-.078,2.678,2.678,0,0,0,.72-.258,2,2,0,0,0,.594-.454.978.978,0,0,0,.246-.672.94.94,0,0,0-.157-.542,1.257,1.257,0,0,0-.4-.37,1.95,1.95,0,0,0-.535-.212,2.534,2.534,0,0,0-.54-.064,2.475,2.475,0,0,0-.39.036c-.148.024-.3.054-.456.09s-.314.078-.474.126-.3.1-.431.142a.269.269,0,0,1-.205.032.194.194,0,0,1-.083-.138l-.108-.878a.147.147,0,0,1,.011-.13.315.315,0,0,1,.169-.108,7.787,7.787,0,0,1,1.032-.3,4.793,4.793,0,0,1,1.008-.108,4.409,4.409,0,0,1,1.062.13,2.86,2.86,0,0,1,.925.41,2.111,2.111,0,0,1,.654.72,2.1,2.1,0,0,1,.251,1.054,1.921,1.921,0,0,1-.114.648,2.47,2.47,0,0,1-.317.614,2.526,2.526,0,0,1-.492.516,2.668,2.668,0,0,1-.624.37,3,3,0,0,1,1.2.884,1.921,1.921,0,0,1,.408,1.194,2.735,2.735,0,0,1-.246,1.164A2.557,2.557,0,0,1,3470.319-351.019Z" transform="translate(-3465.672 359.623)" fill="#fff"/><path d="M3471.5-350.451c-.11,0-.167-.05-.167-.154v-7.106l-.887.77a.3.3,0,0,1-.137.06.148.148,0,0,1-.128-.036l-.538-.648a.15.15,0,0,1-.031-.114.217.217,0,0,1,.064-.126l1.836-1.692a.343.343,0,0,1,.084-.05.33.33,0,0,1,.1-.022h.638a.446.446,0,0,1,.246.04.555.555,0,0,1,.042.284v8.64a.136.136,0,0,1-.156.154Z" transform="translate(-3461.739 359.677)" fill="#fff"/></g></g></g></svg>