<svg xmlns="http://www.w3.org/2000/svg" width="21" height="21" viewBox="0 0 21 21"><g transform="translate(-200 -185)"><g transform="translate(-1391 -1143)"><rect width="21" height="21" transform="translate(1591 1328)" fill="#fff" opacity="0"/><g transform="translate(1591 1328)"><path d="M18.81,7.059V4.387A1.236,1.236,0,0,0,17.575,3.15H3.565A1.237,1.237,0,0,0,2.33,4.387V6.925a2.321,2.321,0,0,1,0,4.632v2.666A1.237,1.237,0,0,0,3.565,15.46h14.01a1.237,1.237,0,0,0,1.235-1.237V11.69a2.32,2.32,0,0,1,0-4.631" fill="#ffa43d"/><rect width="1.3" height="6" rx="0.65" transform="translate(9.95 6.5)" fill="#fff"/><rect width="1.3" height="6" rx="0.65" transform="translate(13.6 8.85) rotate(90)" fill="#fff"/></g></g></g></svg>