<svg xmlns="http://www.w3.org/2000/svg" width="40" height="40" viewBox="0 0 40 40"><g transform="translate(-100 -443)"><g transform="translate(-7728 -7652.5)"><g transform="translate(7835 8108.155)"><path d="M7857.579,8128.109H7838.42a3.419,3.419,0,0,1-3.421-3.379l1.365-13.494,0-.031v-.03a3.419,3.419,0,0,1,3.422-3.41h16.422a3.419,3.419,0,0,1,3.42,3.41v.03l0,.031L7861,8124.73A3.418,3.418,0,0,1,7857.579,8128.109Z" transform="translate(-7834.999 -8107.764)" fill="#fff" stroke="#222" stroke-miterlimit="10" stroke-width="1.5"/></g><g transform="translate(7842.107 8102.5)"><path d="M7842.525,8110.77v-2.215a5.985,5.985,0,1,1,11.97,0v2.214" transform="translate(-7842.525 -8102.5)" fill="none" stroke="#222" stroke-linecap="round" stroke-linejoin="round" stroke-width="1.5"/></g><g transform="translate(7842 8116.5)"><path d="M353.066,362.7a.838.838,0,0,0-.84.835v1.928a1.219,1.219,0,1,1-2.413,0v-1.928A.818.818,0,0,0,349,362.7a.838.838,0,0,0-.84.835V365.5a2.869,2.869,0,0,0,4.924,2.095,3.06,3.06,0,0,0,.827-2.131v-1.928a.838.838,0,0,0-.84-.835" transform="translate(-341.906 -362.527)" fill="#222"/><path d="M240.491,363.3a.837.837,0,0,0-.594.245,1.347,1.347,0,0,1-1.894,0,1.335,1.335,0,0,1,1.894-1.883.837.837,0,0,0,1.188-1.18,3,3,0,1,0,0,4.244.835.835,0,0,0-.594-1.425" transform="translate(-235.931 -359.607)" fill="#222"/></g></g><rect width="40" height="40" transform="translate(100 443)" fill="none"/></g></svg>