<svg xmlns="http://www.w3.org/2000/svg" width="36" height="36" viewBox="0 0 36 36"><g transform="translate(-3487.391 395.074)"><rect width="36" height="36" transform="translate(3487.391 -395.074)" fill="none"/><g transform="translate(3490.575 -393.845)"><path d="M3517.149-382.921h-1.105a1.408,1.408,0,0,0-.453.074c-.012-.066-.02-.132-.03-.2a11.182,11.182,0,0,0-3.536-5.58,7.039,7.039,0,0,1,.609-4.464,5.178,5.178,0,0,0-5.6,2.232,13.569,13.569,0,0,0-12.546,1.488c-10.354,8.185-3.654,16.988-2.314,18.6a6.376,6.376,0,0,1,1.827,4.339,1.241,1.241,0,0,0,1.092,1.364,1.276,1.276,0,0,0,.248,0h3.536c1.828,0,1.585-1.984,1.585-1.984h3.775c-.122,1.86.245,1.984.245,1.984l6.088-.124a5.218,5.218,0,0,1,.982-4.588,16.518,16.518,0,0,0,4.235-5.853,1.7,1.7,0,0,0,.268.026h1.1a1.471,1.471,0,0,0,1.455-1.484v-4.348a1.468,1.468,0,0,0-1.457-1.482Z" transform="translate(-3488.803 393.244)" fill="#ff9cca"/><g transform="translate(10.723 7.62)"><g transform="translate(0 1.403)"><path d="M3494.607-380.151a5.576,5.576,0,0,0,2.173.44,2.431,2.431,0,0,0,1.534-.468,1.493,1.493,0,0,0,.6-1.254,1.431,1.431,0,0,0-.335-.886,2.845,2.845,0,0,0-.82-.71c-.355-.2-.721-.39-1.094-.572s-.732-.37-1.078-.57a2.337,2.337,0,0,1-.912-.866,2.164,2.164,0,0,1-.294-1.08,2.557,2.557,0,0,1,.241-1.142,2.426,2.426,0,0,1,.654-.824,2.738,2.738,0,0,1,.966-.492,4.214,4.214,0,0,1,1.172-.158,8.163,8.163,0,0,1,1.138.07,7.333,7.333,0,0,1,.964.212.471.471,0,0,1,.18.1.206.206,0,0,1,.062.194l-.052.526a.192.192,0,0,1-.1.176.226.226,0,0,1-.17,0,4.316,4.316,0,0,0-.863-.22,7.576,7.576,0,0,0-1.034-.062q-2,0-2,1.616a1.018,1.018,0,0,0,.269.666,2.842,2.842,0,0,0,.9.632q.551.282,1.086.536c.355.17.741.37,1.153.6a2.375,2.375,0,0,1,.889.912,2.621,2.621,0,0,1,.352,1.334,2.548,2.548,0,0,1-.272,1.212,2.46,2.46,0,0,1-.744.842,3.333,3.333,0,0,1-1.068.5,4.685,4.685,0,0,1-1.241.168c-.254,0-.479-.006-.682-.018s-.388-.03-.567-.052-.359-.054-.542-.088-.382-.082-.588-.142a.292.292,0,0,1-.224-.316l.069-.648C3494.356-380.163,3494.446-380.221,3494.607-380.151Z" transform="translate(-3494.263 388.732)" fill="#fff"/></g><rect width="0.982" height="1.6" rx="0.1" transform="translate(2.396)" fill="#fff"/><rect width="0.982" height="1.6" rx="0.1" transform="translate(2.474 11.264)" fill="#fff"/></g></g></g></svg>