<svg xmlns="http://www.w3.org/2000/svg" width="36" height="36" viewBox="0 0 36 36"><g transform="translate(-436 -338)"><rect width="36" height="36" transform="translate(436 338)" fill="none"/><g transform="translate(441.399 338)"><g transform="translate(0 9.526)"><path d="M167.779,430.9l-11,17.116c0,1.526,4.925,2.763,11,2.763s11-1.237,11-2.763Z" transform="translate(-155.879 -430.03)" fill="#ff9cca"/><path d="M168.179,452.067c-4.421,0-11.9-.77-11.9-3.663a.9.9,0,0,1,.142-.486l11-17.116a.937.937,0,0,1,1.514,0l11,17.116a.882.882,0,0,1,.144.486C180.079,451.3,172.6,452.067,168.179,452.067Zm-10.008-3.541c.661.657,4.226,1.741,10.008,1.741,5.719,0,9.27-1.062,9.994-1.764l-9.994-15.55Z" transform="translate(-156.279 -430.417)" fill="#ff9cca"/></g><g transform="translate(3.303)"><path d="M161.4,441.37l.311-1.793.7-4.079-2.986-2.893-1.318-1.274,1.816-.263,4.131-.594,1.847-3.724.8-1.625.806,1.625,1.847,3.713,4.135.6,1.814.261L174,432.6l-2.988,2.893.706,4.084.31,1.789-1.613-.839-3.7-1.924-3.7,1.928Z" transform="translate(-158.114 -425.125)" fill="#ff9cca"/><g transform="translate(0.144 0.225)"><path d="M166.65,427.05l-2.056,4.147-4.6.662,3.328,3.222-.787,4.549,4.115-2.146,4.113,2.142-.785-4.552,3.328-3.224-4.6-.662-2.056-4.138m0-1.8a1.8,1.8,0,0,1,1.611,1l1.636,3.292,3.667.527a1.8,1.8,0,0,1,1,3.074l-2.646,2.563.625,3.614a1.8,1.8,0,0,1-2.606,1.9l-3.281-1.71-3.281,1.714a1.8,1.8,0,0,1-2.606-1.9l.623-3.611-2.644-2.56a1.8,1.8,0,0,1,1-3.076l3.663-.526,1.636-3.3a1.8,1.8,0,0,1,1.611-1Z" transform="translate(-158.194 -425.25)" fill="#fff"/></g></g></g></g></svg>