<svg xmlns="http://www.w3.org/2000/svg" width="36" height="36" viewBox="0 0 36 36"><g transform="translate(-254 -220)"><rect width="36" height="36" transform="translate(254 220)" fill="none"/><g transform="translate(261 222.6)"><g transform="translate(2.536 0.004)"><g transform="translate(0 4.988)"><path d="M250.78,405.029l-3.676,5.234L245.189,413l-4.237,6.052c-1.3,1.858-1.721,3.809-.94,4.354L246.606,414l1.917-2.741,3.668-5.234Z" transform="translate(-238.269 -403.148)" fill="#666"/><path d="M240.944,426.126l-1.105-.772c-.493-.344-1.26-1.2-.857-3.076a9.124,9.124,0,0,1,1.465-3.159l10.606-15.134,3.616,2.545Z" transform="translate(-238.869 -403.984)" fill="#222"/></g><g transform="translate(9.716)"><circle cx="3.71" cy="3.71" r="3.71" transform="translate(1.349 1.351)" fill="#fff"/><path d="M249.327,411.333a5.06,5.06,0,1,1,5.06-5.06A5.066,5.066,0,0,1,249.327,411.333Zm0-7.42a2.36,2.36,0,1,0,2.36,2.36A2.361,2.361,0,0,0,249.327,403.913Z" transform="translate(-244.267 -401.213)" fill="#222"/></g><g transform="translate(15.442 4.117)"><path d="M247.448,403.5" transform="translate(-247.448 -403.5)" fill="#fff" stroke="#222" stroke-miterlimit="9.998" stroke-width="1.5"/></g><g transform="translate(2.547 22.531)"><path d="M240.284,413.73" transform="translate(-240.284 -413.73)" fill="none" stroke="#222" stroke-miterlimit="9.998" stroke-width="1.5"/></g><g transform="translate(2.547 22.531)"><path d="M240.284,413.73" transform="translate(-240.284 -413.73)" fill="none" stroke="#222" stroke-miterlimit="9.998" stroke-width="1.5"/></g></g><g transform="translate(0)"><g transform="translate(4.03 5.121)"><path d="M241.981,405.1l3.668,5.238,1.919,2.74,4.234,6.052c1.3,1.858,1.8,3.749,1.121,4.23l-6.59-9.414-1.919-2.741-3.67-5.234Z" transform="translate(-238.863 -403.22)" fill="#666"/><path d="M253.429,426.083,239.7,406.477l3.449-2.421,10.6,15.138c1.44,2.056,2.511,4.891.792,6.106Z" transform="translate(-239.699 -404.056)" fill="#222"/></g><circle cx="3.71" cy="3.71" r="3.71" transform="translate(1.351 1.351)" fill="#fff"/><path d="M242.52,411.331a5.06,5.06,0,1,1,5.062-5.06A5.067,5.067,0,0,1,242.52,411.331Zm0-7.42a2.36,2.36,0,1,0,2.362,2.36A2.362,2.362,0,0,0,242.52,403.911Z" transform="translate(-237.46 -401.211)" fill="#222"/><g transform="translate(4.403 4.117)"><path d="M239.906,403.5" transform="translate(-239.906 -403.498)" fill="#fff" stroke="#222" stroke-miterlimit="9.998" stroke-width="1.5"/></g><g transform="translate(17.293 22.532)"><path d="M247.067,413.729" transform="translate(-247.067 -413.729)" fill="none" stroke="#222" stroke-miterlimit="9.998" stroke-width="1.5"/></g><g transform="translate(17.293 22.532)"><path d="M247.067,413.729" transform="translate(-247.067 -413.729)" fill="none" stroke="#222" stroke-miterlimit="9.998" stroke-width="1.5"/></g></g></g></g></svg>