<svg xmlns="http://www.w3.org/2000/svg" width="36" height="36" viewBox="0 0 36 36"><g transform="translate(-100 -15)"><g transform="translate(100 15)"><rect width="36" height="36" fill="none"/><g transform="translate(4.823)"><path d="M3481.916-401.641h-.788v-9.744a7.889,7.889,0,0,0-7.888-7.892h0a7.892,7.892,0,0,0-7.892,7.892h0v9.744h-.786a1.021,1.021,0,0,0-1.021,1.022v2.75a1.022,1.022,0,0,0,1.021,1.022h17.356a1.022,1.022,0,0,0,1.021-1.022v-2.748a1.02,1.02,0,0,0-1.021-1.024Z" transform="translate(-3460.067 425.467)" fill="#ff3131"/><g transform="translate(0 12.222)"><path d="M3462.689-416.261h1.776a.886.886,0,0,1,.888.888h0a.887.887,0,0,1-.888.888h-1.776a.888.888,0,0,1-.888-.888h0A.887.887,0,0,1,3462.689-416.261Z" transform="translate(-3461.802 416.261)" fill="#ff3131"/><path d="M3474.091-416.261h1.776a.886.886,0,0,1,.888.888h0a.887.887,0,0,1-.888.888h-1.776a.888.888,0,0,1-.888-.888h0A.887.887,0,0,1,3474.091-416.261Z" transform="translate(-3450.401 416.261)" fill="#ff3131"/></g><path d="M3467.947-419.708v-1.776a.887.887,0,0,1,.888-.888h0a.886.886,0,0,1,.888.888v1.776a.887.887,0,0,1-.888.888h0A.889.889,0,0,1,3467.947-419.708Z" transform="translate(-3455.656 422.372)" fill="#ff3131"/><g transform="translate(3.552 3.551)"><path d="M3471.946-419.08l1.256-1.256a.889.889,0,0,1,1.256,0h0a.889.889,0,0,1,0,1.256l-1.256,1.256a.89.89,0,0,1-1.256,0h0A.89.89,0,0,1,3471.946-419.08Z" transform="translate(-3455.469 420.597)" fill="#ff3131"/><path d="M3465.094-417.823l-1.256-1.256a.89.89,0,0,1,0-1.256h0a.886.886,0,0,1,1.256,0l1.256,1.256a.887.887,0,0,1,0,1.256h0A.89.89,0,0,1,3465.094-417.823Z" transform="translate(-3463.579 420.596)" fill="#ff3131"/></g><rect width="21.6" height="1.8" transform="translate(2.378 22.05)" fill="#fff"/></g></g></g></svg>