<svg xmlns="http://www.w3.org/2000/svg" width="40" height="40" viewBox="0 0 40 40"><g transform="translate(-103 -450)"><path d="M25.735,8.142,20,12.264,14.265,8.142c-1.1-.634-2.486.986-2.486,2.255v8.336a1.657,1.657,0,0,0,2.486,1.427L20,16.866l5.735,3.294a1.656,1.656,0,0,0,2.485-1.427V10.4C28.22,9.128,26.84,7.508,25.735,8.142Z" transform="translate(103 450)" fill="#fff" stroke="#222" stroke-linecap="round" stroke-linejoin="round" stroke-width="1.5"/><rect width="21.268" height="18.01" rx="4.037" transform="translate(112.366 463.989)" fill="#fff" stroke="#222" stroke-linecap="round" stroke-linejoin="round" stroke-width="1.5"/><rect width="26" height="6.134" rx="1.988" transform="translate(110 461.844)" fill="#fff" stroke="#222" stroke-linecap="round" stroke-linejoin="round" stroke-width="1.5"/><rect width="4.454" height="7" transform="translate(120.773 461)" fill="#fff" stroke="#222" stroke-linecap="round" stroke-linejoin="round" stroke-width="1.5"/><path d="M25.155,22.176a.839.839,0,0,0-.84.835v1.928a1.219,1.219,0,1,1-2.413.348,1.194,1.194,0,0,1,0-.348V23.011a.819.819,0,0,0-.8-.835h-.012a.839.839,0,0,0-.84.835v1.965a2.869,2.869,0,0,0,4.924,2.095A3.059,3.059,0,0,0,26,24.94V23.012a.839.839,0,0,0-.84-.835" transform="translate(103 450)" fill="#222"/><path d="M18.555,25.7a.838.838,0,0,0-.594.245,1.335,1.335,0,1,1,0-1.883.837.837,0,0,0,1.188-1.18,3,3,0,1,0,0,4.244.835.835,0,0,0-.594-1.425" transform="translate(103 450)" fill="#222"/><rect width="40" height="40" transform="translate(103 450)" fill="none"/></g></svg>