<svg xmlns="http://www.w3.org/2000/svg" width="21" height="21" viewBox="0 0 21 21"><g transform="translate(-3627.391 423.217)"><rect width="21" height="21" transform="translate(3627.391 -423.217)" fill="none"/><g transform="translate(3629.676 -420.647)"><g transform="translate(0 0)"><path d="M3640.6-419.892l-3.572,2.657-3.571-2.657c-.686-.512-1.548.128-1.548,1.15v6.724c0,1.028.86,1.662,1.548,1.15l3.571-2.657,3.572,2.657c.686.512,1.548-.128,1.548-1.15v-6.724C3642.149-419.764,3641.289-420.4,3640.6-419.892Z" transform="translate(-3629.107 420.072)" fill="none" stroke="#67a0f5" stroke-width="1"/><path d="M3644.615-417.965h-14.464a.679.679,0,0,0-.693.663v2.342a.68.68,0,0,0,.693.663h.7v6.64a.686.686,0,0,0,.7.666h11.677a.686.686,0,0,0,.7-.666v-6.64h.7a.679.679,0,0,0,.694-.663V-417.3a.677.677,0,0,0-.694-.663Z" transform="translate(-3629.458 420.372)" fill="#67a0f5"/></g><rect width="13.775" height="1.028" transform="translate(0.981 6.074)" fill="#fff"/><rect width="7.307" height="1.028" transform="translate(8.382 6.074) rotate(90)" fill="#fff"/></g></g></svg>