<svg xmlns="http://www.w3.org/2000/svg" width="120" height="24" viewBox="0 0 120 24"><g transform="translate(-124 -2401)"><g transform="translate(219.982 2401)"><rect width="24" height="24" transform="translate(0.018)" fill="none"/><g transform="translate(-280.976 -403.742)" fill="none" stroke-linecap="round" stroke-linejoin="round"><path d="M303.674,413.305a.51.51,0,0,0-.413-.348l-6.793-.979-3.036-6.111a.51.51,0,0,0-.914,0l-3.037,6.107-6.793.983a.51.51,0,0,0-.282.872l4.912,4.755-1.159,6.714a.511.511,0,0,0,.739.54l6.076-3.172,6.076,3.172a.509.509,0,0,0,.537-.041.511.511,0,0,0,.2-.5l-1.159-6.714,4.912-4.755A.509.509,0,0,0,303.674,413.305Z" stroke="none"/><path d="M 292.9740600585938 408.3170471191406 L 290.8234558105469 412.6418151855469 C 290.6042175292969 413.0827026367188 290.1825256347656 413.3879089355469 289.6952209472656 413.4584350585938 L 284.8966369628906 414.1530151367188 L 288.3611755371094 417.5071105957031 C 288.7175598144531 417.8521728515625 288.8803405761719 418.3511047363281 288.7959594726562 418.8399658203125 L 287.9772338867188 423.5830078125 L 292.2798156738281 421.3364868164062 C 292.7148132324219 421.109375 293.2333679199219 421.109375 293.6683654785156 421.3364868164062 L 297.970947265625 423.5830078125 L 297.1522216796875 418.8399658203125 C 297.0678405761719 418.3511047363281 297.2306213378906 417.8521728515625 297.5870056152344 417.5071105957031 L 301.0504455566406 414.1540832519531 L 296.2538452148438 413.4626770019531 C 295.7659606933594 413.3923645019531 295.3437805175781 413.0868530273438 295.1244812011719 412.6454162597656 L 292.9740600585938 408.3170471191406 M 292.9740905761719 405.5829772949219 C 293.1681518554688 405.5829772949219 293.34521484375 405.6932678222656 293.4317016601562 405.8669128417969 L 296.4678344726562 411.97802734375 L 303.260498046875 412.9571228027344 C 303.453857421875 412.9850463867188 303.6138610839844 413.119873046875 303.6737670898438 413.3050842285156 C 303.7337036132812 413.490966796875 303.6833190917969 413.6938781738281 303.5423583984375 413.8293762207031 L 298.63037109375 418.5848083496094 L 299.7892456054688 425.2984924316406 C 299.8218994140625 425.4898376464844 299.7435913085938 425.6838989257812 299.5870361328125 425.7975769042969 C 299.42919921875 425.9132690429688 299.2190246582031 425.9277038574219 299.0497741699219 425.8384704589844 L 292.9740905761719 422.6661376953125 L 286.8983764648438 425.8384704589844 C 286.7261047363281 425.9276733398438 286.5177612304688 425.9119873046875 286.3611450195312 425.7975769042969 C 286.20458984375 425.6838989257812 286.1255493164062 425.4898376464844 286.158935546875 425.2984924316406 L 287.3178100585938 418.5848083496094 L 282.4058227539062 413.8293762207031 C 282.2655639648438 413.6938781738281 282.2144775390625 413.490966796875 282.2744140625 413.3050842285156 C 282.3349609375 413.119873046875 282.4943237304688 412.9850463867188 282.6877136230469 412.9571228027344 L 289.4803466796875 411.9739074707031 L 292.5172119140625 405.8669128417969 C 292.6029968261719 405.6932678222656 292.780029296875 405.5829772949219 292.9740905761719 405.5829772949219 Z" stroke="none" fill="#ddd"/></g><path d="M338.366,405.583a.511.511,0,0,0-.457.284l-3.037,6.107-6.793.983a.51.51,0,0,0-.282.872l4.913,4.756-1.16,6.714a.511.511,0,0,0,.739.54l6.076-3.172Z" transform="translate(-326.368 -403.742)" fill="#37d243" opacity="0"/></g><g transform="translate(195.982 2401)"><rect width="24" height="24" transform="translate(0.018)" fill="none"/><g transform="translate(-280.976 -403.742)" fill="none" stroke-linecap="round" stroke-linejoin="round"><path d="M303.674,413.305a.51.51,0,0,0-.413-.348l-6.793-.979-3.036-6.111a.51.51,0,0,0-.914,0l-3.037,6.107-6.793.983a.51.51,0,0,0-.282.872l4.912,4.755-1.159,6.714a.511.511,0,0,0,.739.54l6.076-3.172,6.076,3.172a.509.509,0,0,0,.537-.041.511.511,0,0,0,.2-.5l-1.159-6.714,4.912-4.755A.509.509,0,0,0,303.674,413.305Z" stroke="none"/><path d="M 292.9740600585938 408.3170471191406 L 290.8234558105469 412.6418151855469 C 290.6042175292969 413.0827026367188 290.1825256347656 413.3879089355469 289.6952209472656 413.4584350585938 L 284.8966369628906 414.1530151367188 L 288.3611755371094 417.5071105957031 C 288.7175598144531 417.8521728515625 288.8803405761719 418.3511047363281 288.7959594726562 418.8399658203125 L 287.9772338867188 423.5830078125 L 292.2798156738281 421.3364868164062 C 292.7148132324219 421.109375 293.2333679199219 421.109375 293.6683654785156 421.3364868164062 L 297.970947265625 423.5830078125 L 297.1522216796875 418.8399658203125 C 297.0678405761719 418.3511047363281 297.2306213378906 417.8521728515625 297.5870056152344 417.5071105957031 L 301.0504455566406 414.1540832519531 L 296.2538452148438 413.4626770019531 C 295.7659606933594 413.3923645019531 295.3437805175781 413.0868530273438 295.1244812011719 412.6454162597656 L 292.9740600585938 408.3170471191406 M 292.9740905761719 405.5829772949219 C 293.1681518554688 405.5829772949219 293.34521484375 405.6932678222656 293.4317016601562 405.8669128417969 L 296.4678344726562 411.97802734375 L 303.260498046875 412.9571228027344 C 303.453857421875 412.9850463867188 303.6138610839844 413.119873046875 303.6737670898438 413.3050842285156 C 303.7337036132812 413.490966796875 303.6833190917969 413.6938781738281 303.5423583984375 413.8293762207031 L 298.63037109375 418.5848083496094 L 299.7892456054688 425.2984924316406 C 299.8218994140625 425.4898376464844 299.7435913085938 425.6838989257812 299.5870361328125 425.7975769042969 C 299.42919921875 425.9132690429688 299.2190246582031 425.9277038574219 299.0497741699219 425.8384704589844 L 292.9740905761719 422.6661376953125 L 286.8983764648438 425.8384704589844 C 286.7261047363281 425.9276733398438 286.5177612304688 425.9119873046875 286.3611450195312 425.7975769042969 C 286.20458984375 425.6838989257812 286.1255493164062 425.4898376464844 286.158935546875 425.2984924316406 L 287.3178100585938 418.5848083496094 L 282.4058227539062 413.8293762207031 C 282.2655639648438 413.6938781738281 282.2144775390625 413.490966796875 282.2744140625 413.3050842285156 C 282.3349609375 413.119873046875 282.4943237304688 412.9850463867188 282.6877136230469 412.9571228027344 L 289.4803466796875 411.9739074707031 L 292.5172119140625 405.8669128417969 C 292.6029968261719 405.6932678222656 292.780029296875 405.5829772949219 292.9740905761719 405.5829772949219 Z" stroke="none" fill="#ddd"/></g><path d="M338.366,405.583a.511.511,0,0,0-.457.284l-3.037,6.107-6.793.983a.51.51,0,0,0-.282.872l4.913,4.756-1.16,6.714a.511.511,0,0,0,.739.54l6.076-3.172Z" transform="translate(-326.368 -403.742)" fill="#37d243" opacity="0"/></g><g transform="translate(171.982 2401)"><rect width="24" height="24" transform="translate(0.018)" fill="none"/><g transform="translate(-280.976 -403.742)" fill="none" stroke-linecap="round" stroke-linejoin="round"><path d="M303.674,413.305a.51.51,0,0,0-.413-.348l-6.793-.979-3.036-6.111a.51.51,0,0,0-.914,0l-3.037,6.107-6.793.983a.51.51,0,0,0-.282.872l4.912,4.755-1.159,6.714a.511.511,0,0,0,.739.54l6.076-3.172,6.076,3.172a.509.509,0,0,0,.537-.041.511.511,0,0,0,.2-.5l-1.159-6.714,4.912-4.755A.509.509,0,0,0,303.674,413.305Z" stroke="none"/><path d="M 292.9740600585938 408.3170471191406 L 290.8234558105469 412.6418151855469 C 290.6042175292969 413.0827026367188 290.1825256347656 413.3879089355469 289.6952209472656 413.4584350585938 L 284.8966369628906 414.1530151367188 L 288.3611755371094 417.5071105957031 C 288.7175598144531 417.8521728515625 288.8803405761719 418.3511047363281 288.7959594726562 418.8399658203125 L 287.9772338867188 423.5830078125 L 292.2798156738281 421.3364868164062 C 292.7148132324219 421.109375 293.2333679199219 421.109375 293.6683654785156 421.3364868164062 L 297.970947265625 423.5830078125 L 297.1522216796875 418.8399658203125 C 297.0678405761719 418.3511047363281 297.2306213378906 417.8521728515625 297.5870056152344 417.5071105957031 L 301.0504455566406 414.1540832519531 L 296.2538452148438 413.4626770019531 C 295.7659606933594 413.3923645019531 295.3437805175781 413.0868530273438 295.1244812011719 412.6454162597656 L 292.9740600585938 408.3170471191406 M 292.9740905761719 405.5829772949219 C 293.1681518554688 405.5829772949219 293.34521484375 405.6932678222656 293.4317016601562 405.8669128417969 L 296.4678344726562 411.97802734375 L 303.260498046875 412.9571228027344 C 303.453857421875 412.9850463867188 303.6138610839844 413.119873046875 303.6737670898438 413.3050842285156 C 303.7337036132812 413.490966796875 303.6833190917969 413.6938781738281 303.5423583984375 413.8293762207031 L 298.63037109375 418.5848083496094 L 299.7892456054688 425.2984924316406 C 299.8218994140625 425.4898376464844 299.7435913085938 425.6838989257812 299.5870361328125 425.7975769042969 C 299.42919921875 425.9132690429688 299.2190246582031 425.9277038574219 299.0497741699219 425.8384704589844 L 292.9740905761719 422.6661376953125 L 286.8983764648438 425.8384704589844 C 286.7261047363281 425.9276733398438 286.5177612304688 425.9119873046875 286.3611450195312 425.7975769042969 C 286.20458984375 425.6838989257812 286.1255493164062 425.4898376464844 286.158935546875 425.2984924316406 L 287.3178100585938 418.5848083496094 L 282.4058227539062 413.8293762207031 C 282.2655639648438 413.6938781738281 282.2144775390625 413.490966796875 282.2744140625 413.3050842285156 C 282.3349609375 413.119873046875 282.4943237304688 412.9850463867188 282.6877136230469 412.9571228027344 L 289.4803466796875 411.9739074707031 L 292.5172119140625 405.8669128417969 C 292.6029968261719 405.6932678222656 292.780029296875 405.5829772949219 292.9740905761719 405.5829772949219 Z" stroke="none" fill="#ddd"/></g><path d="M338.366,405.583a.511.511,0,0,0-.457.284l-3.037,6.107-6.793.983a.51.51,0,0,0-.282.872l4.913,4.756-1.16,6.714a.511.511,0,0,0,.739.54l6.076-3.172Z" transform="translate(-326.368 -403.742)" fill="#37d243" opacity="0"/></g><g transform="translate(147.982 2401)"><rect width="24" height="24" transform="translate(0.018)" fill="none"/><g transform="translate(-280.976 -403.742)" fill="none" stroke-linecap="round" stroke-linejoin="round"><path d="M303.674,413.305a.51.51,0,0,0-.413-.348l-6.793-.979-3.036-6.111a.51.51,0,0,0-.914,0l-3.037,6.107-6.793.983a.51.51,0,0,0-.282.872l4.912,4.755-1.159,6.714a.511.511,0,0,0,.739.54l6.076-3.172,6.076,3.172a.509.509,0,0,0,.537-.041.511.511,0,0,0,.2-.5l-1.159-6.714,4.912-4.755A.509.509,0,0,0,303.674,413.305Z" stroke="none"/><path d="M 292.9740600585938 408.3170471191406 L 290.8234558105469 412.6418151855469 C 290.6042175292969 413.0827026367188 290.1825256347656 413.3879089355469 289.6952209472656 413.4584350585938 L 284.8966369628906 414.1530151367188 L 288.3611755371094 417.5071105957031 C 288.7175598144531 417.8521728515625 288.8803405761719 418.3511047363281 288.7959594726562 418.8399658203125 L 287.9772338867188 423.5830078125 L 292.2798156738281 421.3364868164062 C 292.7148132324219 421.109375 293.2333679199219 421.109375 293.6683654785156 421.3364868164062 L 297.970947265625 423.5830078125 L 297.1522216796875 418.8399658203125 C 297.0678405761719 418.3511047363281 297.2306213378906 417.8521728515625 297.5870056152344 417.5071105957031 L 301.0504455566406 414.1540832519531 L 296.2538452148438 413.4626770019531 C 295.7659606933594 413.3923645019531 295.3437805175781 413.0868530273438 295.1244812011719 412.6454162597656 L 292.9740600585938 408.3170471191406 M 292.9740905761719 405.5829772949219 C 293.1681518554688 405.5829772949219 293.34521484375 405.6932678222656 293.4317016601562 405.8669128417969 L 296.4678344726562 411.97802734375 L 303.260498046875 412.9571228027344 C 303.453857421875 412.9850463867188 303.6138610839844 413.119873046875 303.6737670898438 413.3050842285156 C 303.7337036132812 413.490966796875 303.6833190917969 413.6938781738281 303.5423583984375 413.8293762207031 L 298.63037109375 418.5848083496094 L 299.7892456054688 425.2984924316406 C 299.8218994140625 425.4898376464844 299.7435913085938 425.6838989257812 299.5870361328125 425.7975769042969 C 299.42919921875 425.9132690429688 299.2190246582031 425.9277038574219 299.0497741699219 425.8384704589844 L 292.9740905761719 422.6661376953125 L 286.8983764648438 425.8384704589844 C 286.7261047363281 425.9276733398438 286.5177612304688 425.9119873046875 286.3611450195312 425.7975769042969 C 286.20458984375 425.6838989257812 286.1255493164062 425.4898376464844 286.158935546875 425.2984924316406 L 287.3178100585938 418.5848083496094 L 282.4058227539062 413.8293762207031 C 282.2655639648438 413.6938781738281 282.2144775390625 413.490966796875 282.2744140625 413.3050842285156 C 282.3349609375 413.119873046875 282.4943237304688 412.9850463867188 282.6877136230469 412.9571228027344 L 289.4803466796875 411.9739074707031 L 292.5172119140625 405.8669128417969 C 292.6029968261719 405.6932678222656 292.780029296875 405.5829772949219 292.9740905761719 405.5829772949219 Z" stroke="none" fill="#ddd"/></g><path d="M338.366,405.583a.511.511,0,0,0-.457.284l-3.037,6.107-6.793.983a.51.51,0,0,0-.282.872l4.913,4.756-1.16,6.714a.511.511,0,0,0,.739.54l6.076-3.172Z" transform="translate(-326.368 -403.742)" fill="#37d243" opacity="0"/></g><g transform="translate(123.982 2401)"><rect width="24" height="24" transform="translate(0.018)" fill="none"/><g transform="translate(-280.976 -403.742)" fill="none" stroke-linecap="round" stroke-linejoin="round"><path d="M303.674,413.305a.51.51,0,0,0-.413-.348l-6.793-.979-3.036-6.111a.51.51,0,0,0-.914,0l-3.037,6.107-6.793.983a.51.51,0,0,0-.282.872l4.912,4.755-1.159,6.714a.511.511,0,0,0,.739.54l6.076-3.172,6.076,3.172a.509.509,0,0,0,.537-.041.511.511,0,0,0,.2-.5l-1.159-6.714,4.912-4.755A.509.509,0,0,0,303.674,413.305Z" stroke="none"/><path d="M 292.9740600585938 408.3170471191406 L 290.8234558105469 412.6418151855469 C 290.6042175292969 413.0827026367188 290.1825256347656 413.3879089355469 289.6952209472656 413.4584350585938 L 284.8966369628906 414.1530151367188 L 288.3611755371094 417.5071105957031 C 288.7175598144531 417.8521728515625 288.8803405761719 418.3511047363281 288.7959594726562 418.8399658203125 L 287.9772338867188 423.5830078125 L 292.2798156738281 421.3364868164062 C 292.7148132324219 421.109375 293.2333679199219 421.109375 293.6683654785156 421.3364868164062 L 297.970947265625 423.5830078125 L 297.1522216796875 418.8399658203125 C 297.0678405761719 418.3511047363281 297.2306213378906 417.8521728515625 297.5870056152344 417.5071105957031 L 301.0504455566406 414.1540832519531 L 296.2538452148438 413.4626770019531 C 295.7659606933594 413.3923645019531 295.3437805175781 413.0868530273438 295.1244812011719 412.6454162597656 L 292.9740600585938 408.3170471191406 M 292.9740905761719 405.5829772949219 C 293.1681518554688 405.5829772949219 293.34521484375 405.6932678222656 293.4317016601562 405.8669128417969 L 296.4678344726562 411.97802734375 L 303.260498046875 412.9571228027344 C 303.453857421875 412.9850463867188 303.6138610839844 413.119873046875 303.6737670898438 413.3050842285156 C 303.7337036132812 413.490966796875 303.6833190917969 413.6938781738281 303.5423583984375 413.8293762207031 L 298.63037109375 418.5848083496094 L 299.7892456054688 425.2984924316406 C 299.8218994140625 425.4898376464844 299.7435913085938 425.6838989257812 299.5870361328125 425.7975769042969 C 299.42919921875 425.9132690429688 299.2190246582031 425.9277038574219 299.0497741699219 425.8384704589844 L 292.9740905761719 422.6661376953125 L 286.8983764648438 425.8384704589844 C 286.7261047363281 425.9276733398438 286.5177612304688 425.9119873046875 286.3611450195312 425.7975769042969 C 286.20458984375 425.6838989257812 286.1255493164062 425.4898376464844 286.158935546875 425.2984924316406 L 287.3178100585938 418.5848083496094 L 282.4058227539062 413.8293762207031 C 282.2655639648438 413.6938781738281 282.2144775390625 413.490966796875 282.2744140625 413.3050842285156 C 282.3349609375 413.119873046875 282.4943237304688 412.9850463867188 282.6877136230469 412.9571228027344 L 289.4803466796875 411.9739074707031 L 292.5172119140625 405.8669128417969 C 292.6029968261719 405.6932678222656 292.780029296875 405.5829772949219 292.9740905761719 405.5829772949219 Z" stroke="none" fill="#ddd"/></g><path d="M338.366,405.583a.511.511,0,0,0-.457.284l-3.037,6.107-6.793.983a.51.51,0,0,0-.282.872l4.913,4.756-1.16,6.714a.511.511,0,0,0,.739.54l6.076-3.172Z" transform="translate(-326.368 -403.742)" fill="#37d243" opacity="0"/></g></g></svg>