<svg xmlns="http://www.w3.org/2000/svg" width="32" height="32" viewBox="0 0 32 32"><g transform="translate(-292 -117)"><g transform="translate(-2 3)"><rect width="32" height="32" transform="translate(294 114)" fill="none"/></g><g transform="translate(-226.016 -578.468)"><path d="M540.862,704.942a1.357,1.357,0,0,0-1.352-1.235H524.555a1.356,1.356,0,0,0-1.351,1.235l-1.183,13.186a1.356,1.356,0,0,0,1.351,1.477h17.322a1.356,1.356,0,0,0,1.351-1.477Z" fill="#67a0f5"/><rect width="9.56" height="12.189" rx="4.78" transform="translate(527.253 699.467)" fill="none" stroke="#67a0f5" stroke-miterlimit="10" stroke-width="1.7"/><circle cx="7.685" cy="7.685" r="7.685" transform="translate(530.922 709.801)" fill="#67a0f5" stroke="#fff" stroke-miterlimit="10" stroke-width="1.7"/><line x2="6.738" transform="translate(535.238 717.486)" fill="#37d243" stroke="#fff" stroke-linecap="round" stroke-linejoin="round" stroke-width="1.7"/><line y1="6.738" transform="translate(538.607 714.117)" fill="#37d243" stroke="#fff" stroke-linecap="round" stroke-linejoin="round" stroke-width="1.7"/></g></g></svg>