<svg xmlns="http://www.w3.org/2000/svg" width="40" height="40" viewBox="0 0 40 40"><g transform="translate(-100 -524)"><rect width="40" height="40" transform="translate(100 524)" fill="none"/><g transform="translate(106 529)"><g transform="translate(6)" fill="none" stroke-miterlimit="10"><path d="M4,17.5V10a5,5,0,1,1,6,0v7.5Z" stroke="none"/><path d="M 8.499899864196777 15.99960136413574 L 8.499899864196777 9.250850677490234 L 9.099090576171875 8.800830841064453 C 9.989200592041016 8.13231086730957 10.49970054626465 7.111551284790039 10.49970054626465 6.000300884246826 C 10.49970054626465 4.070170879364014 8.929830551147461 2.499901056289673 7.000200271606445 2.499901056289673 C 5.070070266723633 2.499901056289673 3.499800205230713 4.070170879364014 3.499800205230713 6.000300884246826 C 3.499800205230713 7.111161231994629 4.010340213775635 8.131791114807129 4.900520324707031 8.800491333007812 L 5.499599933624268 9.250520706176758 L 5.499599933624268 15.99960136413574 L 8.499899864196777 15.99960136413574 M 9.999899864196777 17.49960136413574 L 3.999600172042847 17.49960136413574 L 3.999600172042847 9.999800682067871 C 2.785360097885132 9.087660789489746 1.999800086021423 7.635721206665039 1.999800086021423 6.000300884246826 C 1.999800086021423 3.238201141357422 4.23900032043457 0.9999011158943176 7.000200271606445 0.9999011158943176 C 9.76140022277832 0.9999011158943176 11.99970054626465 3.238201141357422 11.99970054626465 6.000300884246826 C 11.99970054626465 7.636051177978516 11.21430969238281 9.088130950927734 9.999899864196777 10.00022125244141 L 9.999899864196777 17.49960136413574 Z" stroke="none" fill="#222"/></g><g transform="translate(0 16)" fill="none" stroke="#222" stroke-miterlimit="10" stroke-width="1.5"><path d="M3,0H23a3,3,0,0,1,3,3V8a0,0,0,0,1,0,0H0A0,0,0,0,1,0,8V3A3,3,0,0,1,3,0Z" stroke="none"/><path d="M3,.75H23A2.25,2.25,0,0,1,25.25,3V6.5a.75.75,0,0,1-.75.75H1.5A.75.75,0,0,1,.75,6.5V3A2.25,2.25,0,0,1,3,.75Z" fill="none"/></g><g transform="translate(2 22.5)" fill="none" stroke="#222" stroke-miterlimit="10" stroke-width="1.5"><rect width="22" height="4" rx="2" stroke="none"/><rect x="0.75" y="0.75" width="20.5" height="2.5" rx="1.25" fill="none"/></g></g></g></svg>