<svg xmlns="http://www.w3.org/2000/svg" width="40" height="40" viewBox="0 0 40 40"><g transform="translate(-304 -443)"><rect width="40" height="40" transform="translate(304 443)" fill="none"/><g transform="translate(311 449.79)"><path d="M11.928.389a2.032,2.032,0,0,1,1.64-.012L24.881,5.3A1.812,1.812,0,0,1,26,6.947V19.08A1.808,1.808,0,0,1,24.935,20.7L13.657,26.019a2.03,2.03,0,0,1-1.8-.04L.985,20.241A1.8,1.8,0,0,1,0,18.657V6.928A1.81,1.81,0,0,1,1.093,5.292Z" transform="translate(0 0)" fill="none" stroke="#222" stroke-miterlimit="10" stroke-width="1.5"/><path d="M0,0,11.7,5.824,24.412,0" transform="translate(1.059 6.109)" fill="none" stroke="#222" stroke-linecap="round" stroke-linejoin="round" stroke-miterlimit="10" stroke-width="1.5"/><path d="M.48,0l.1,13.812" transform="translate(12.264 11.933)" fill="none" stroke="#222" stroke-linecap="square" stroke-miterlimit="10" stroke-width="1.5"/><path d="M-.331-.182l12.875,6" transform="translate(7.206 2.767)" fill="none" stroke="#222" stroke-miterlimit="10" stroke-width="1.5"/></g></g></svg>