<svg xmlns="http://www.w3.org/2000/svg" width="62" height="62" viewBox="0 0 62 62"><g transform="translate(-1139 -1080.999)"><g transform="translate(1139 1080.999)"><rect width="62" height="62" fill="#f6f6f6"/></g><g transform="translate(1150.032 1099.43)"><path d="M434.938,192.557a1.714,1.714,0,0,0-1.707,1.717v3.968a2.479,2.479,0,1,1-4.9,0v-3.968a1.674,1.674,0,0,0-1.661-1.717,1.714,1.714,0,0,0-1.709,1.717v4.043a5.809,5.809,0,0,0,5.818,6.1,5.7,5.7,0,0,0,4.185-1.789,6.336,6.336,0,0,0,1.681-4.385v-3.968a1.717,1.717,0,0,0-1.709-1.717" transform="translate(-404.319 -185.75)" fill="#652d8d"/><path d="M90.872,95.079a1.336,1.336,0,0,1-.428-.071l-4.6-1.174a12.446,12.446,0,0,1-6.17,1.631H64.026a12.629,12.629,0,0,1,0-25.257h5.4a1.353,1.353,0,0,1,0,2.706h-5.4a9.922,9.922,0,0,0,0,19.844H79.67a9.776,9.776,0,0,0,5.289-1.547,1.338,1.338,0,0,1,1.151-.141l3.014.895L87.85,89.32a1.361,1.361,0,0,1,.14-1.159A9.936,9.936,0,0,0,79.67,72.915h-5.4a1.353,1.353,0,0,1,0-2.706h5.4A12.647,12.647,0,0,1,90.6,89.048l1.55,4.246a1.358,1.358,0,0,1-.323,1.388,1.341,1.341,0,0,1-.951.4" transform="translate(-51.479 -70.209)" fill="#aace37"/><path d="M204.575,193.845a1.686,1.686,0,0,0-1.206.5,2.71,2.71,0,0,1-3.848,0,2.651,2.651,0,0,1,0-3.874,2.707,2.707,0,0,1,3.848,0,1.7,1.7,0,0,0,2.413,0,1.729,1.729,0,0,0,0-2.43,6.107,6.107,0,0,0-8.674,0,6.213,6.213,0,0,0,0,8.734,6.111,6.111,0,0,0,8.674,0,1.73,1.73,0,0,0,0-2.43,1.694,1.694,0,0,0-1.207-.5" transform="translate(-187.364 -179.781)" fill="#652d8d"/></g></g></svg>